<?xml version="1.0" standalone="no"?>
<!DOCTYPE svg PUBLIC "-//W3C//DTD SVG 20010904//EN"
 "http://www.w3.org/TR/2001/REC-SVG-20010904/DTD/svg10.dtd">
<svg version="1.0" xmlns="http://www.w3.org/2000/svg"
 width="520.000000pt" height="263.000000pt" viewBox="0 0 520.000000 263.000000"
 preserveAspectRatio="xMidYMid meet">
<metadata>
Created by potrace 1.16, written by Peter Selinger 2001-2019
</metadata>
<g transform="translate(0.000000,263.000000) scale(0.100000,-0.100000)"
fill="#000000" stroke="none">
<path d="M5049 2602 c-10 -18 -30 -32 -56 -40 -31 -9 -356 -12 -1352 -12
-1159 0 -1311 2 -1311 15 0 8 -4 15 -9 15 -5 0 -28 -7 -51 -15 -37 -13 -180
-15 -1047 -15 l-1005 0 -39 -22 c-66 -37 -69 -51 -69 -357 0 -264 0 -271 -20
-271 -25 0 -25 -13 0 -68 19 -42 20 -70 20 -825 0 -723 1 -783 17 -816 10 -19
31 -44 46 -55 l28 -21 1885 -3 1884 -2 0 -21 c0 -22 17 -20 72 7 22 11 112 14
458 14 423 0 430 0 430 -20 0 -24 -3 -24 55 1 43 19 48 19 64 5 38 -34 89 -9
77 39 -9 35 -54 45 -76 17 l-17 -21 -52 19 c-51 20 -51 20 -51 0 0 -19 -6 -19
-177 -14 -232 7 -233 7 -262 49 l-24 36 -4 396 c-3 356 -5 400 -21 428 -31 54
-70 65 -223 65 -109 0 -147 4 -192 19 -57 20 -57 20 -57 0 0 -20 -9 -20 -1011
-19 -848 1 -1016 4 -1044 16 -44 18 -65 18 -65 -1 0 -11 -12 -15 -50 -15 l-50
0 0 75 0 75 -255 0 -255 0 0 -76 c0 -84 4 -82 -78 -48 -32 13 -34 12 -39 -6
-4 -16 -14 -20 -48 -20 -40 0 -44 2 -50 30 -4 17 -18 44 -32 61 -48 56 -62 59
-294 59 -197 0 -214 -1 -249 -21 -37 -21 -80 -81 -80 -113 0 -14 -5 -14 -51 3
l-51 20 -6 -21 c-4 -17 -10 -19 -45 -14 -22 4 -44 9 -50 13 -36 22 -50 178
-22 234 9 16 30 39 48 49 31 19 57 20 890 20 740 0 863 -2 894 -15 19 -8 39
-15 44 -15 5 0 9 7 9 15 0 13 99 15 833 15 788 0 834 1 873 19 65 30 74 60 74
248 0 134 3 169 20 218 24 69 23 65 6 65 -9 0 -16 19 -20 58 -13 112 -48 132
-231 132 l-125 0 0 75 0 75 -660 0 -660 0 0 -75 c0 -41 -2 -75 -5 -75 -3 0
-22 7 -42 15 -19 8 -42 15 -49 15 -8 0 -14 -7 -14 -15 0 -13 -24 -15 -157 -15
l-158 0 -25 52 c-34 72 -65 91 -150 96 -57 4 -75 0 -108 -18 -39 -22 -82 -82
-82 -114 0 -19 2 -19 -50 -1 -54 19 -70 19 -70 0 0 -11 -12 -15 -45 -15 -40 0
-45 3 -51 28 -10 41 -53 92 -90 108 -48 20 -530 20 -577 0 -40 -16 -86 -69
-94 -107 -3 -16 -7 -29 -8 -29 -1 0 -19 7 -38 15 -46 19 -67 19 -67 0 0 -9 -9
-15 -24 -15 -77 0 -106 47 -106 175 0 99 14 136 63 165 31 19 58 20 1029 20
974 0 997 0 1043 -20 26 -11 51 -20 56 -20 5 0 9 9 9 20 0 20 7 20 1320 20
1181 0 1324 2 1359 16 37 15 71 50 71 74 0 19 -15 10 -31 -18z m-4010 -320
c52 -26 75 -63 75 -120 0 -35 -7 -58 -24 -81 -40 -57 -62 -61 -337 -61 -277 0
-297 4 -340 69 -43 63 -21 148 49 191 31 19 51 20 288 20 223 0 259 -2 289
-18z m565 4 c101 -42 105 -194 6 -247 -73 -39 -173 -16 -218 51 -19 28 -23 44
-19 83 4 50 23 78 72 108 36 23 112 25 159 5z m1826 -126 l0 -140 -635 0 -635
0 0 140 0 140 635 0 635 0 0 -140z m-3215 -7 c35 -5 45 -10 45 -24 0 -24 7
-24 61 0 l43 20 12 -36 c17 -47 60 -91 104 -104 22 -6 134 -9 296 -7 l261 3
35 27 c22 17 43 46 53 73 17 44 19 45 61 45 37 0 44 -3 44 -20 0 -11 4 -20 9
-20 5 0 30 9 56 20 26 11 48 20 50 20 1 0 5 -13 8 -29 8 -38 54 -91 94 -107
18 -8 56 -14 85 -14 77 0 126 31 158 97 l25 53 109 0 c99 0 107 -1 100 -17 -4
-10 -10 -71 -12 -135 -4 -142 7 -176 72 -208 40 -19 61 -20 348 -20 l306 0 6
-34 c8 -44 72 -102 121 -112 75 -14 169 42 182 107 8 39 14 41 63 24 53 -19
60 -19 60 0 0 13 30 15 208 16 232 0 265 7 298 57 37 54 42 222 9 305 -6 15
-1 17 46 17 72 0 125 -16 144 -43 21 -31 21 -127 -1 -127 -9 0 -14 -6 -12 -12
38 -101 40 -122 36 -272 -5 -179 -16 -212 -83 -233 -30 -8 -256 -12 -862 -12
-809 -1 -823 -1 -823 18 0 19 -1 19 -37 3 -35 -15 -118 -17 -918 -22 l-880 -5
-32 -23 -33 -23 0 199 c0 152 4 210 15 242 8 23 15 46 15 51 0 5 -7 9 -15 9
-13 0 -15 23 -15 147 0 144 0 146 20 128 10 -9 40 -20 65 -22z m1815 -23 c0
-11 5 -20 10 -20 6 0 28 9 50 20 22 11 42 20 45 20 3 0 5 -34 5 -75 l0 -75
660 0 660 0 0 75 0 75 38 0 c69 0 82 -25 82 -165 0 -188 -11 -195 -305 -195
-196 0 -205 1 -205 19 0 20 -1 20 -55 1 -52 -18 -56 -18 -61 -2 -24 83 -71
124 -146 129 -83 6 -146 -42 -172 -129 -5 -17 -28 -18 -305 -18 -260 0 -305 2
-335 17 -52 24 -66 63 -66 183 0 128 14 160 73 160 20 0 27 -5 27 -20z m825
-224 c45 -19 75 -69 75 -124 0 -57 -24 -96 -75 -123 -56 -30 -106 -20 -157 31
-33 33 -38 43 -38 85 0 109 95 172 195 131z m-1932 -677 c71 -37 99 -105 72
-175 -9 -25 -30 -53 -48 -66 -30 -22 -42 -23 -237 -26 -231 -3 -254 2 -298 68
-44 66 -12 169 63 200 31 13 422 12 448 -1z m807 -129 l0 -140 -235 0 -235 0
0 140 0 140 235 0 235 0 0 -140z m-1502 -10 c22 0 32 -5 32 -15 0 -8 4 -15 9
-15 5 0 28 7 51 15 23 8 44 15 45 15 2 0 6 -14 10 -30 9 -40 51 -89 92 -106
24 -10 86 -14 231 -14 185 0 201 1 242 23 36 17 50 33 70 74 24 52 26 53 68
53 31 0 42 -4 42 -15 0 -8 4 -15 9 -15 5 0 28 7 51 15 23 8 46 15 51 15 5 0 9
-34 9 -75 l0 -75 255 0 255 0 0 75 0 75 50 0 c38 0 50 -4 50 -15 0 -19 11 -19
57 0 37 16 140 20 159 7 31 -20 36 -59 43 -331 7 -306 10 -323 71 -336 16 -4
30 -13 30 -21 0 -18 9 -18 53 1 50 21 54 19 61 -16 9 -44 73 -106 120 -114 76
-15 166 39 184 110 8 28 12 30 60 33 42 2 52 0 52 -12 0 -20 8 -20 53 -1 20 8
41 15 47 15 6 0 10 -30 10 -75 l0 -75 260 0 260 0 0 75 0 75 300 0 c260 0 300
-2 300 -15 0 -19 6 -19 63 1 36 12 80 15 205 12 191 -4 202 -9 202 -92 1 -70
14 -124 39 -150 12 -12 21 -25 21 -29 0 -4 -94 -7 -208 -7 -181 0 -216 3 -265
19 -57 20 -57 20 -57 0 0 -19 -19 -19 -1878 -17 -1528 3 -1881 5 -1900 16 -13
7 -32 28 -42 45 -19 30 -20 54 -20 484 l0 453 33 -20 c17 -11 47 -20 65 -20z
m3742 -15 c0 -8 4 -15 9 -15 5 0 28 7 51 15 30 11 84 15 182 15 210 0 228 -15
228 -199 l0 -110 -35 15 c-25 10 -75 14 -178 14 -116 0 -155 4 -200 19 -56 20
-57 20 -57 0 0 -16 -7 -19 -45 -19 l-45 0 0 75 0 75 -260 0 -260 0 0 -74 0
-75 -55 19 c-55 19 -55 19 -55 -1 0 -18 -6 -20 -46 -17 -43 3 -47 5 -59 41 -7
21 -21 48 -32 59 -39 45 -65 48 -379 48 -254 0 -301 -2 -331 -16 -39 -19 -83
-78 -83 -111 0 -22 -1 -22 -41 -8 -53 19 -69 19 -69 0 0 -17 -14 -19 -40 -5
-25 13 -40 62 -40 134 -1 34 -7 78 -14 99 l-14 37 934 0 c824 0 934 -2 934
-15z m-903 -155 c41 -24 63 -67 63 -120 0 -55 -26 -96 -75 -120 -38 -18 -63
-20 -311 -20 -148 0 -285 5 -305 10 -116 32 -134 200 -26 254 27 13 77 16 327
16 275 0 297 -1 327 -20z m783 -120 l0 -140 -230 0 -230 0 0 140 0 140 230 0
230 0 0 -140z m-1652 -10 c6 0 12 -9 12 -21 0 -22 17 -21 72 7 35 18 35 19 41
-15 8 -38 54 -91 94 -107 25 -11 100 -14 320 -14 266 0 290 1 327 20 45 22 86
74 86 108 0 20 5 22 50 22 43 0 50 -3 50 -20 0 -24 -2 -24 60 0 l50 20 0 -75
0 -75 260 0 260 0 0 75 0 75 45 0 c38 0 45 -3 45 -20 0 -25 -2 -25 62 1 46 18
69 20 209 17 212 -4 199 10 199 -214 l0 -173 -35 15 c-25 10 -75 14 -178 14
-116 0 -155 4 -200 19 -56 20 -57 20 -57 0 0 -18 -9 -19 -300 -19 l-300 0 0
75 0 75 -260 0 -260 0 0 -70 c0 -78 -1 -79 -69 -55 -39 13 -41 13 -41 -5 0
-17 -7 -20 -50 -20 -40 0 -52 4 -56 18 -33 113 -132 162 -231 116 -39 -19 -83
-78 -83 -111 l0 -23 -52 20 c-29 11 -54 20 -55 20 -2 0 -3 -9 -3 -20 0 -40
-53 -16 -69 31 -6 18 -11 99 -11 185 l0 153 28 -15 c15 -7 33 -14 40 -14z
m342 -245 c93 -48 97 -187 7 -240 -39 -23 -108 -24 -142 -1 -59 39 -82 124
-50 185 32 62 121 89 185 56z m800 -125 l0 -140 -235 0 -235 0 0 140 0 140
235 0 235 0 0 -140z m1768 -293 c4 -20 -25 -34 -40 -19 -15 15 -1 44 19 40 10
-2 19 -11 21 -21z"/>
<path d="M497 2222 c-23 -25 -22 -65 2 -86 26 -24 62 -17 81 17 13 24 13 30 0
55 -19 33 -59 41 -83 14z m73 -42 c0 -18 -7 -33 -18 -39 -26 -14 -52 5 -52 39
0 34 26 53 52 39 11 -6 18 -21 18 -39z"/>
<path d="M610 2180 c0 -33 4 -60 10 -60 6 0 10 11 10 25 0 14 4 25 10 25 5 0
17 -11 26 -25 9 -14 21 -25 26 -25 6 0 3 11 -6 24 -10 15 -12 27 -6 31 16 10
12 52 -6 59 -9 3 -27 6 -40 6 -23 0 -24 -3 -24 -60z m60 35 c15 -18 5 -35 -21
-35 -14 0 -19 7 -19 25 0 28 21 33 40 10z"/>
<path d="M720 2180 c0 -60 0 -60 29 -60 37 0 61 23 61 60 0 37 -24 60 -61 60
-29 0 -29 0 -29 -60z m72 26 c14 -21 8 -46 -17 -62 -13 -8 -29 -13 -35 -9 -11
7 -14 78 -3 88 9 9 46 -2 55 -17z"/>
<path d="M840 2180 l0 -60 38 1 c36 1 36 2 7 8 -38 8 -42 42 -5 52 25 7 25 7
-3 8 -39 1 -33 34 8 42 29 6 29 7 -7 8 l-38 1 0 -60z"/>
<path d="M930 2180 c0 -33 4 -60 10 -60 6 0 10 11 10 25 0 14 6 25 13 25 8 0
20 -11 27 -25 17 -32 33 -33 18 0 -8 18 -8 28 1 39 21 25 -3 56 -44 56 l-35 0
0 -60z m59 41 c19 -12 6 -41 -19 -41 -15 0 -20 7 -20 25 0 26 14 31 39 16z"/>
<path d="M1440 2180 c0 -57 1 -60 24 -60 13 0 31 3 40 6 18 7 22 54 6 54 -7 0
-7 6 -1 18 13 25 -4 42 -41 42 -28 0 -28 -1 -28 -60z m55 30 c0 -8 -10 -16
-22 -18 -22 -3 -32 16 -16 32 12 11 38 2 38 -14z m4 -44 c9 -10 8 -16 -4 -26
-20 -16 -45 -6 -45 20 0 23 31 28 49 6z"/>
<path d="M1530 2235 c0 -2 9 -19 20 -37 11 -18 20 -44 21 -58 1 -23 2 -22 8 5
4 17 16 43 26 58 10 15 15 30 12 34 -4 3 -12 -6 -18 -21 -15 -33 -26 -33 -41
-1 -10 21 -28 35 -28 20z"/>
<path d="M2490 2231 c0 -12 -9 -21 -26 -25 -22 -6 -25 -11 -22 -44 3 -34 5
-37 36 -38 l32 -1 0 64 c0 35 -4 63 -10 63 -5 0 -10 -9 -10 -19z m0 -59 c0
-34 -7 -43 -26 -35 -17 6 -18 35 -2 51 19 19 28 14 28 -16z"/>
<path d="M2983 2226 c-6 -10 -9 -26 -7 -35 12 -62 16 -71 31 -71 13 0 14 3 5
12 -16 16 -15 68 1 68 8 0 9 3 1 8 -6 4 -13 14 -16 22 -4 12 -6 11 -15 -4z"/>
<path d="M2290 2196 c-28 -35 11 -93 48 -70 35 22 22 84 -18 84 -10 0 -23 -7
-30 -14z m45 -32 c0 -19 -5 -29 -15 -29 -16 0 -25 28 -16 51 10 25 31 10 31
-22z"/>
<path d="M2380 2163 c0 -24 5 -43 10 -43 6 0 10 16 10 35 0 22 6 38 18 44 14
9 13 10 -10 9 -26 -2 -28 -6 -28 -45z"/>
<path d="M2542 2198 c-15 -15 -16 -50 0 -66 14 -14 44 -16 52 -4 3 5 -4 8 -16
8 -12 -1 -23 5 -25 12 -3 7 5 12 22 12 22 0 26 4 23 23 -3 25 -36 35 -56 15z
m46 -16 c2 -7 -6 -12 -17 -12 -21 0 -27 11 -14 24 9 9 26 2 31 -12z"/>
<path d="M2620 2164 c0 -24 5 -44 10 -44 6 0 10 16 10 35 0 21 6 37 17 43 13
8 11 10 -10 10 -25 0 -27 -4 -27 -44z"/>
<path d="M2693 2165 c0 -27 2 -38 4 -22 2 15 2 37 0 50 -2 12 -4 0 -4 -28z"/>
<path d="M2731 2160 l2 -45 6 40 c4 27 12 41 24 43 14 3 17 -4 17 -37 0 -23 5
-41 10 -41 15 0 12 66 -3 78 -7 6 -23 10 -35 9 -19 -1 -22 -7 -21 -47z"/>
<path d="M2831 2196 c-20 -24 -10 -70 17 -74 29 -4 22 -28 -7 -25 -13 2 -20
-1 -16 -7 9 -15 41 -12 54 4 7 8 11 36 9 63 -2 40 -7 49 -24 51 -11 2 -26 -4
-33 -12z m39 -24 c0 -34 -7 -43 -26 -35 -17 6 -18 35 -2 51 19 19 28 14 28
-16z"/>
<path d="M3053 2203 c-19 -7 -16 -70 3 -77 24 -9 44 -7 44 5 0 5 -4 8 -9 5
-12 -8 -41 3 -41 15 0 5 14 9 30 9 33 0 35 3 20 31 -11 19 -23 22 -47 12z m37
-24 c0 -5 -9 -9 -20 -9 -22 0 -27 16 -7 23 15 5 27 -1 27 -14z"/>
<path d="M3132 2160 c1 -40 2 -41 5 -10 2 19 11 40 20 47 13 10 13 12 -6 10
-18 -1 -21 -7 -19 -47z"/>
<path d="M3190 2163 c0 -24 5 -43 10 -43 6 0 10 18 10 40 0 29 4 40 15 40 11
0 15 -11 15 -40 0 -50 18 -53 22 -3 4 52 28 56 28 4 0 -23 5 -41 10 -41 12 0
13 59 2 76 -4 7 -30 11 -59 11 l-53 -1 0 -43z"/>
<path d="M2923 2163 c9 -2 23 -2 30 0 6 3 -1 5 -18 5 -16 0 -22 -2 -12 -5z"/>
<path d="M2784 1735 c1 -30 20 -27 24 3 2 14 -2 22 -11 22 -10 0 -14 -9 -13
-25z"/>
<path d="M500 1120 l0 -60 43 2 c36 1 38 2 10 5 -33 4 -33 5 -33 59 0 30 -4
54 -10 54 -6 0 -10 -27 -10 -60z"/>
<path d="M590 1120 c0 -33 4 -60 10 -60 6 0 10 27 10 60 0 33 -4 60 -10 60 -6
0 -10 -27 -10 -60z"/>
<path d="M642 1118 c1 -61 1 -61 7 -18 l6 45 18 -32 c10 -18 20 -33 22 -33 2
0 12 15 22 33 l18 32 6 -45 c6 -43 6 -43 7 18 1 34 -2 62 -6 62 -5 0 -17 -19
-28 -41 l-18 -41 -20 41 c-11 22 -24 41 -28 41 -4 0 -7 -28 -6 -62z"/>
<path d="M780 1120 c0 -33 4 -60 10 -60 6 0 10 27 10 60 0 33 -4 60 -10 60 -6
0 -10 -27 -10 -60z"/>
<path d="M828 1173 c20 -4 22 -10 22 -59 0 -30 5 -54 10 -54 6 0 10 24 10 54
0 49 2 55 23 59 12 2 -3 4 -33 4 -30 0 -45 -2 -32 -4z"/>
<path d="M1340 1129 c-17 -31 2 -69 35 -69 14 0 25 4 25 8 0 5 -10 8 -21 8
-12 -1 -24 5 -26 12 -3 7 5 12 22 12 22 0 26 4 23 23 -4 31 -43 35 -58 6z m48
-7 c2 -7 -6 -12 -17 -12 -21 0 -27 11 -14 24 9 9 26 2 31 -12z"/>
<path d="M1420 1144 c0 -6 5 -15 11 -21 9 -9 8 -18 -5 -37 -9 -15 -12 -26 -7
-26 6 0 15 8 21 18 10 16 10 16 20 0 6 -10 16 -18 21 -18 6 0 3 10 -5 22 -11
16 -12 26 -5 40 6 11 8 22 5 25 -3 3 -8 -2 -12 -11 -6 -16 -8 -16 -25 0 -11 9
-19 13 -19 8z"/>
<path d="M1511 1080 c1 -36 4 -55 6 -42 3 12 12 22 22 22 23 0 41 20 41 46 0
27 -19 44 -48 41 -20 -1 -22 -6 -21 -67z m44 24 c0 -19 -5 -29 -15 -29 -16 0
-25 28 -16 51 10 25 31 10 31 -22z"/>
<path d="M1600 1103 c0 -24 5 -43 10 -43 6 0 10 16 10 35 0 22 6 38 18 44 14
9 13 10 -10 9 -26 -2 -28 -6 -28 -45z"/>
<path d="M2465 866 c-40 -29 -14 -106 36 -106 26 0 49 28 49 60 0 51 -45 76
-85 46z m70 -27 c9 -28 -3 -56 -26 -62 -23 -6 -49 17 -49 43 0 45 62 61 75 19z"/>
<path d="M2581 818 c1 -45 3 -54 8 -33 4 20 14 31 31 36 25 7 25 7 -3 8 -39 1
-33 34 8 42 29 6 29 7 -7 8 l-38 1 1 -62z"/>
<path d="M2671 818 c1 -45 3 -54 8 -33 4 20 14 31 31 36 25 7 25 7 -3 8 -39 1
-33 34 8 42 29 6 29 7 -7 8 l-38 1 1 -62z"/>
<path d="M2761 866 c-17 -20 -5 -40 31 -54 26 -10 29 -14 18 -27 -8 -10 -21
-13 -38 -8 -17 4 -23 2 -18 -6 8 -13 45 -14 64 -2 21 13 10 44 -21 59 -43 21
-34 38 17 32 11 -1 15 3 12 9 -10 15 -51 14 -65 -3z"/>
<path d="M2850 820 l0 -60 43 1 c38 1 39 2 12 8 -42 9 -48 48 -8 54 l28 4 -28
2 c-39 2 -33 34 8 42 27 6 26 7 -12 8 l-43 1 0 -60z"/>
<path d="M2958 873 c20 -4 22 -10 22 -59 0 -30 5 -54 10 -54 6 0 10 24 10 54
0 49 2 55 23 59 12 2 -3 4 -33 4 -30 0 -45 -2 -32 -4z"/>
<path d="M3472 838 c-15 -15 -16 -50 0 -66 14 -14 44 -16 52 -4 3 5 -4 8 -16
8 -12 -1 -23 5 -25 12 -3 7 5 12 22 12 22 0 26 4 23 23 -3 25 -36 35 -56 15z
m46 -16 c2 -7 -6 -12 -17 -12 -21 0 -27 11 -14 24 9 9 26 2 31 -12z"/>
<path d="M3550 844 c0 -6 5 -15 11 -21 9 -9 8 -18 -5 -37 -9 -15 -12 -26 -7
-26 6 0 15 8 21 18 10 16 10 16 20 0 6 -10 16 -18 21 -18 6 0 3 10 -5 22 -11
16 -12 26 -5 40 6 11 8 22 5 25 -3 3 -8 -2 -12 -11 -6 -16 -8 -16 -25 0 -11 9
-19 13 -19 8z"/>
<path d="M3630 785 c0 -37 4 -65 10 -65 6 0 10 9 10 20 0 13 7 20 20 20 12 0
25 10 31 24 16 35 -3 66 -41 66 l-30 0 0 -65z m58 25 c4 -23 -15 -43 -30 -34
-10 6 -11 48 -1 58 12 12 28 0 31 -24z"/>
<path d="M3732 800 c1 -41 2 -42 5 -9 3 25 11 40 26 47 21 10 21 11 -5 9 -26
-1 -28 -4 -26 -47z"/>
<path d="M2464 375 c1 -30 20 -27 24 3 2 14 -2 22 -11 22 -10 0 -14 -9 -13
-25z"/>
<path d="M2962 458 c-15 -15 -16 -50 0 -66 14 -14 44 -16 52 -4 3 5 -4 8 -16
8 -12 -1 -23 5 -25 12 -3 7 5 12 22 12 22 0 26 4 23 23 -3 25 -36 35 -56 15z
m46 -16 c2 -7 -6 -12 -17 -12 -21 0 -27 11 -14 24 9 9 26 2 31 -12z"/>
<path d="M3040 464 c0 -6 5 -15 11 -21 9 -9 8 -18 -5 -37 -9 -15 -12 -26 -7
-26 6 0 15 8 21 18 10 16 10 16 20 0 6 -10 16 -18 21 -18 6 0 3 10 -5 22 -11
16 -12 26 -5 40 6 11 8 22 5 25 -3 3 -8 -2 -12 -11 -6 -16 -8 -16 -25 0 -11 9
-19 13 -19 8z"/>
<path d="M3120 405 c0 -37 4 -65 10 -65 6 0 10 9 10 20 0 13 7 20 20 20 12 0
25 10 31 24 16 35 -3 66 -41 66 l-30 0 0 -65z m58 25 c4 -23 -15 -43 -30 -34
-10 6 -11 48 -1 58 12 12 28 0 31 -24z"/>
<path d="M3222 420 c1 -41 2 -42 5 -9 3 25 11 40 26 47 21 10 21 11 -5 9 -26
-1 -28 -4 -26 -47z"/>
</g>
</svg>
