<?xml version="1.0" standalone="no"?>
<!DOCTYPE svg PUBLIC "-//W3C//DTD SVG 20010904//EN"
 "http://www.w3.org/TR/2001/REC-SVG-20010904/DTD/svg10.dtd">
<svg version="1.0" xmlns="http://www.w3.org/2000/svg"
 width="468.000000pt" height="372.000000pt" viewBox="0 0 468.000000 372.000000"
 preserveAspectRatio="xMidYMid meet">
<metadata>
Created by potrace 1.16, written by Peter Selinger 2001-2019
</metadata>
<g transform="translate(0.000000,372.000000) scale(0.100000,-0.100000)"
fill="#000000" stroke="none">
<path d="M285 3631 c-41 -25 -65 -53 -79 -95 l-12 -35 -43 20 c-55 24 -71 24
-71 -1 0 -17 -7 -20 -40 -20 -22 0 -40 -4 -40 -10 0 -5 18 -10 40 -10 29 0 40
-4 40 -15 0 -8 4 -15 9 -15 5 0 28 7 51 15 56 20 57 20 65 -15 9 -40 51 -89
92 -106 25 -11 99 -14 316 -14 273 0 284 1 327 23 36 17 50 33 70 74 23 49 28
53 60 53 79 0 83 -18 87 -315 2 -137 8 -267 13 -287 14 -48 52 -78 101 -78 28
0 39 -4 39 -15 0 -8 4 -15 9 -15 5 0 28 7 51 15 56 20 57 20 63 -14 8 -38 54
-91 94 -107 20 -9 71 -14 136 -14 134 0 179 20 217 98 l25 52 198 0 c168 0
197 -2 197 -15 0 -8 5 -15 10 -15 6 0 27 7 47 15 19 8 59 15 87 15 128 0 130
5 134 335 4 288 8 306 67 331 21 9 69 14 125 14 90 0 91 0 83 -22 -4 -13 -8
-78 -8 -145 0 -116 1 -123 25 -148 46 -50 48 -50 390 -55 l324 -5 7 -35 c10
-46 75 -106 124 -116 21 -4 54 -2 75 5 45 13 110 81 110 114 0 36 8 38 61 16
61 -23 59 -23 59 1 0 19 7 20 193 20 202 0 249 7 285 40 l22 21 0 -116 c0
-110 -1 -115 -21 -115 -22 0 -21 -17 8 -74 18 -34 19 -306 2 -356 -7 -17 -25
-38 -43 -48 -29 -16 -104 -17 -978 -20 l-948 -2 0 24 0 25 -60 -25 -60 -24
-1062 0 c-1039 0 -1064 -1 -1095 -20 -60 -36 -63 -56 -63 -421 0 -322 0 -329
-20 -329 -25 0 -25 -7 0 -70 19 -49 20 -74 20 -605 0 -546 -1 -555 -20 -555
-25 0 -25 -13 1 -70 17 -38 20 -64 19 -190 -1 -187 -2 -180 10 -180 6 0 10 18
10 40 0 53 23 95 63 117 29 16 75 18 506 21 482 3 486 3 572 -33 11 -4 18 0
22 14 5 21 10 21 342 21 l337 0 38 38 c34 34 39 45 45 105 10 92 -2 190 -26
222 -17 21 -29 25 -70 25 l-49 0 0 80 0 80 -255 0 -255 0 0 -75 c0 -84 -1 -84
-70 -60 -52 18 -50 18 -50 0 0 -11 -12 -15 -44 -15 -41 0 -45 2 -55 33 -18 52
-68 94 -128 107 -33 7 -145 10 -310 8 -222 -3 -262 -5 -290 -20 -36 -20 -69
-62 -78 -101 -8 -31 -9 -32 -65 -12 -53 19 -50 19 -50 -6 0 -19 -4 -21 -38
-14 -20 3 -48 17 -62 31 -22 22 -25 33 -28 127 -3 82 -1 110 12 135 34 66 -45
62 1255 62 1165 0 1182 0 1221 -20 48 -25 50 -25 50 0 0 20 7 20 601 20 401 0
615 4 644 11 24 6 55 24 72 41 l28 29 5 282 c5 234 9 289 23 326 21 53 21 51
2 51 -12 0 -15 20 -16 118 -1 227 -15 253 -162 294 -67 19 -87 22 -87 11 0
-10 -40 -13 -205 -13 l-205 0 0 70 0 70 -815 0 -815 0 0 -70 c0 -78 -4 -81
-67 -55 -43 18 -43 18 -43 1 0 -9 -21 -15 -67 -19 -88 -9 -383 -9 -461 -1 -58
6 -62 9 -72 39 -11 33 -49 74 -87 94 -28 14 -441 15 -478 1 -37 -14 -84 -69
-91 -107 l-6 -32 -50 19 c-50 19 -50 19 -55 -1 -6 -22 -14 -23 -64 -9 -51 14
-69 55 -69 159 0 48 6 96 14 116 29 69 -41 65 1139 65 921 0 1070 -2 1107 -15
53 -19 60 -19 60 0 0 13 121 15 953 17 875 3 955 4 983 20 53 29 64 67 64 230
0 119 4 155 20 203 24 69 24 65 5 65 -13 0 -15 31 -15 218 0 119 -4 234 -9
255 -14 59 -46 87 -98 87 l-43 0 0 75 0 75 -650 0 -650 0 0 -70 c0 -41 -4 -70
-10 -70 -6 0 -27 7 -47 15 -44 19 -53 19 -53 1 0 -22 -93 -26 -596 -26 -450 0
-476 1 -524 20 -28 11 -55 20 -60 20 -6 0 -10 -9 -10 -20 0 -20 -7 -20 -332
-20 -183 0 -356 3 -385 6 -48 6 -53 9 -63 39 -12 37 -54 79 -93 94 -18 7 -138
11 -320 11 -267 0 -295 -2 -322 -19z m652 -21 c46 -28 67 -65 67 -119 0 -57
-28 -101 -78 -125 -29 -14 -76 -16 -313 -16 -311 0 -326 3 -370 69 -43 63 -21
148 49 191 31 19 51 20 323 20 270 0 292 -1 322 -20z m3433 -120 l0 -140 -625
0 -625 0 0 140 0 140 625 0 625 0 0 -140z m-2570 -25 c0 -8 4 -15 9 -15 5 0
28 7 51 15 35 12 107 15 396 15 l353 0 -24 -35 c-18 -27 -25 -56 -31 -116 -8
-99 -28 -129 -82 -129 -35 0 -39 3 -62 52 -46 97 -25 93 -471 96 -335 2 -393
1 -419 -13 -43 -22 -79 -65 -86 -103 -7 -35 -10 -36 -82 -6 -32 13 -34 12 -39
-6 -6 -22 -36 -26 -78 -10 -34 13 -55 64 -55 137 -1 32 -7 75 -14 96 l-14 37
324 0 c281 0 324 -2 324 -15z m1190 0 c0 -8 5 -15 10 -15 6 0 27 7 47 15 19 8
39 15 44 15 5 0 9 -34 9 -75 l0 -75 650 0 650 0 0 75 0 75 31 0 c70 0 89 -37
89 -172 0 -165 -22 -178 -305 -178 -187 0 -195 1 -195 19 0 20 -1 20 -55 1
-52 -18 -56 -18 -61 -2 -18 56 -31 76 -62 100 -30 23 -46 27 -97 27 -89 0
-128 -32 -159 -127 -5 -17 -28 -18 -303 -18 -166 0 -314 4 -334 10 -19 6 -46
22 -60 36 -23 24 -24 32 -24 144 0 102 3 121 19 139 24 26 106 31 106 6z
m-660 -150 c99 -51 96 -196 -5 -245 -39 -19 -63 -20 -401 -20 -400 0 -406 1
-451 69 -43 64 -20 156 48 193 31 16 65 18 407 18 310 0 378 -2 402 -15z
m1475 -69 c48 -20 75 -68 75 -133 0 -44 -5 -58 -31 -87 -58 -67 -149 -67 -208
-1 -26 30 -31 44 -31 88 0 112 93 175 195 133z m-2534 -66 c28 0 39 -4 39 -15
0 -8 4 -15 9 -15 5 0 28 7 51 15 56 20 57 20 63 -14 8 -38 54 -91 94 -107 25
-11 112 -14 401 -14 363 0 369 0 411 23 40 20 71 61 85 110 4 13 16 17 48 17
24 0 54 7 67 17 l24 16 -5 -167 c-4 -147 -7 -170 -25 -194 -27 -36 -96 -42
-164 -13 -59 26 -69 26 -69 1 0 -19 -7 -20 -200 -20 l-200 0 -6 28 c-9 38 -49
89 -84 107 -42 22 -249 21 -296 -1 -40 -19 -72 -60 -80 -103 l-6 -30 -53 24
c-56 24 -65 23 -65 -7 0 -21 -32 -24 -75 -8 -45 17 -55 61 -55 235 l0 156 26
-20 c17 -13 41 -21 65 -21z m536 -250 c45 -27 66 -64 66 -114 0 -57 -28 -102
-81 -127 -37 -18 -57 -21 -146 -17 -114 4 -143 15 -176 71 -39 64 -15 154 51
189 50 27 241 26 286 -2z m-770 -750 c65 -39 86 -107 54 -173 -37 -77 -55 -82
-301 -82 -191 0 -219 2 -243 18 -89 58 -86 190 4 239 30 16 59 18 244 18 191
0 213 -2 242 -20z m2393 -120 l0 -140 -790 0 -790 0 0 140 0 140 790 0 790 0
0 -140z m-3108 -10 c22 0 28 -5 28 -21 0 -22 17 -21 72 7 36 18 35 19 43 -16
9 -42 42 -80 89 -101 36 -16 68 -19 242 -19 191 0 203 1 245 23 34 18 50 35
69 75 24 50 26 52 67 52 76 0 77 -7 83 -350 6 -327 6 -331 73 -367 28 -16 69
-18 355 -21 315 -3 322 -4 322 -23 0 -22 18 -20 72 7 45 23 48 19 48 -66 l0
-80 520 0 520 0 0 79 0 80 263 3 c231 3 266 5 290 21 42 27 57 59 64 131 4 46
10 66 19 66 17 0 17 -2 -2 51 -12 35 -15 83 -15 229 1 162 4 188 20 210 24 34
61 39 61 10 0 -17 4 -20 18 -15 92 40 101 41 139 20 57 -30 63 -51 63 -217 0
-129 -2 -148 -16 -148 -9 0 -14 -6 -12 -12 38 -103 40 -115 36 -360 -3 -264
-7 -282 -61 -322 -28 -21 -38 -21 -649 -24 -617 -3 -620 -3 -625 18 -3 11 -6
20 -7 20 0 0 -25 -9 -54 -20 -51 -20 -77 -20 -1231 -20 l-1178 0 -37 -25 -36
-24 0 333 c0 271 3 341 15 376 19 53 19 60 0 60 -13 0 -15 30 -15 209 l0 209
37 -19 c21 -10 50 -19 65 -19z m1262 -17 c-4 -10 -9 -70 -12 -133 -3 -108 -2
-117 20 -150 44 -65 40 -65 489 -68 l407 -3 6 -30 c14 -74 120 -133 195 -111
44 14 111 81 111 111 0 29 13 33 60 16 52 -18 50 -18 50 0 0 13 36 15 265 15
308 0 351 6 395 57 l32 35 -4 122 c-2 66 -8 129 -12 139 -7 16 1 17 99 17 98
0 107 -1 100 -17 -17 -41 -25 -127 -24 -263 1 -110 -3 -156 -15 -189 -19 -53
-19 -51 -1 -51 12 0 15 -13 15 -61 0 -125 -10 -129 -335 -129 l-255 0 0 70 0
70 -520 0 -520 0 0 -70 c0 -78 -1 -79 -70 -55 -53 19 -50 19 -50 -5 0 -20 -6
-20 -287 -19 -330 0 -373 5 -411 43 l-27 26 -5 298 c-4 197 -10 306 -18 325
l-12 27 171 0 c159 0 171 -1 163 -17z m136 -3 c0 -11 2 -20 4 -20 2 0 25 9 51
20 26 11 49 20 51 20 2 0 4 -34 4 -75 l0 -75 815 0 815 0 0 75 0 75 38 0 c68
0 84 -29 85 -159 2 -106 -8 -134 -60 -168 -24 -16 -57 -18 -318 -18 l-290 0
-3 22 -3 22 -46 -20 c-48 -20 -63 -18 -63 9 0 28 -38 81 -72 102 -40 24 -116
26 -158 5 -35 -18 -71 -67 -79 -109 l-7 -31 -339 -3 c-423 -4 -476 0 -518 38
l-32 28 0 120 c0 143 9 162 82 162 36 0 43 -3 43 -20z m983 -201 c95 -49 111
-165 33 -236 -31 -29 -43 -33 -91 -33 -49 0 -60 4 -92 33 -31 29 -37 41 -41
89 -5 66 14 110 61 138 36 22 97 26 130 9z m437 -514 l0 -145 -495 0 -495 0 0
145 0 145 495 0 495 0 0 -145z m-1935 -646 c68 -60 68 -148 -1 -209 l-35 -30
-297 0 c-280 0 -299 1 -330 20 -57 35 -77 111 -45 177 33 71 42 73 375 73
l297 0 36 -31z m775 -104 l0 -135 -235 0 -235 0 0 135 0 135 235 0 235 0 0
-135z m-1672 -5 c35 0 42 -3 42 -20 0 -24 -3 -24 50 -5 56 20 57 20 65 -15 8
-38 39 -76 78 -98 27 -15 68 -17 282 -20 314 -4 345 -1 395 44 22 20 44 51 50
70 11 32 14 34 56 34 32 0 44 -4 44 -15 0 -18 -2 -18 50 0 69 24 70 24 70 -60
l0 -75 255 0 255 0 0 80 0 80 34 0 c55 0 75 -25 87 -105 10 -72 5 -161 -13
-200 -5 -12 -24 -30 -41 -41 -30 -18 -54 -19 -357 -19 l-324 0 -6 22 -5 23
-53 -25 -54 -25 -488 0 -487 0 -37 -25 -36 -24 0 98 c0 62 6 114 15 141 8 23
15 46 15 51 0 5 -7 9 -15 9 -12 0 -15 16 -15 82 l0 81 23 -21 c16 -15 36 -22
65 -22z"/>
<path d="M332 3558 c-20 -20 -13 -39 19 -50 39 -14 36 -44 -5 -40 -17 2 -25
-1 -21 -7 9 -16 51 -13 65 4 17 20 6 43 -25 51 -33 8 -30 40 3 37 12 -2 22 2
22 7 0 14 -44 12 -58 -2z"/>
<path d="M420 3510 l0 -60 43 1 c38 1 39 2 12 8 -42 9 -48 48 -8 54 l28 4 -28
2 c-39 2 -33 34 8 42 27 6 26 7 -12 8 l-43 1 0 -60z"/>
<path d="M520 3510 l0 -60 43 2 c36 1 38 2 10 5 -33 4 -33 5 -33 59 0 30 -4
54 -10 54 -6 0 -10 -27 -10 -60z"/>
<path d="M610 3510 l0 -60 43 1 c38 1 39 2 12 8 -42 9 -48 48 -8 54 l28 4 -28
2 c-39 2 -33 34 8 42 27 6 26 7 -12 8 l-43 1 0 -60z"/>
<path d="M726 3554 c-23 -22 -21 -81 3 -94 26 -13 58 -13 67 2 5 7 0 9 -14 6
-26 -7 -62 17 -62 42 0 25 36 49 62 42 14 -3 19 -1 14 6 -10 17 -52 15 -70 -4z"/>
<path d="M825 3561 c15 -6 21 -20 26 -62 l6 -54 1 53 c2 44 5 54 25 62 17 7
12 9 -28 9 -34 0 -44 -3 -30 -8z"/>
<path d="M3550 3531 c0 -27 3 -56 6 -65 13 -33 19 -14 16 49 -4 76 -22 89 -22
16z"/>
<path d="M3902 3518 c-2 -57 1 -68 14 -68 12 0 14 3 6 13 -6 7 -12 37 -15 67
-3 54 -3 54 -5 -12z"/>
<path d="M3611 3558 c0 -10 -6 -18 -12 -18 -8 0 -8 -4 -1 -12 6 -7 12 -26 14
-43 2 -21 9 -31 23 -33 18 -2 18 -2 3 8 -11 6 -18 23 -18 40 0 19 6 30 18 33
15 4 15 5 0 6 -9 0 -19 9 -21 19 -4 16 -5 16 -6 0z"/>
<path d="M3240 3493 c0 -24 5 -43 10 -43 6 0 10 16 10 35 0 22 6 38 18 44 14
9 13 10 -10 9 -26 -2 -28 -6 -28 -45z"/>
<path d="M3313 3533 c-19 -7 -16 -70 3 -77 24 -9 44 -7 44 5 0 5 -4 8 -9 5
-12 -8 -41 3 -41 15 0 5 14 9 30 9 33 0 35 3 20 31 -11 19 -23 22 -47 12z m37
-24 c0 -5 -9 -9 -20 -9 -22 0 -27 16 -7 23 15 5 27 -1 27 -14z"/>
<path d="M3387 3533 c-15 -14 -6 -34 19 -43 29 -12 22 -34 -8 -24 -14 4 -18 2
-14 -5 11 -17 46 -13 53 6 4 11 -1 22 -15 31 -28 18 -29 36 -2 29 11 -3 18 -1
14 4 -6 10 -38 12 -47 2z"/>
<path d="M3460 3508 c0 -45 11 -59 43 -56 25 2 27 5 26 48 -2 34 -3 38 -6 15
-9 -62 -43 -69 -43 -9 0 19 -4 34 -10 34 -5 0 -10 -15 -10 -32z"/>
<path d="M3732 3528 c-27 -27 -7 -78 30 -78 10 0 18 4 18 9 0 5 -8 8 -17 7
-14 -1 -18 7 -18 29 0 22 4 30 18 29 9 -1 17 2 17 7 0 13 -34 11 -48 -3z"/>
<path d="M3812 3528 c-7 -7 -12 -21 -12 -33 0 -46 53 -62 71 -21 21 45 -26 87
-59 54z m46 -37 c-3 -29 -25 -34 -41 -9 -8 12 -7 21 2 32 19 22 43 8 39 -23z"/>
<path d="M3940 3514 c0 -40 17 -64 45 -62 23 2 25 6 23 48 -1 40 -2 41 -5 10
-8 -60 -43 -64 -43 -4 0 19 -4 34 -10 34 -5 0 -10 -12 -10 -26z"/>
<path d="M4041 3491 l2 -46 6 40 c4 26 11 40 21 40 10 0 17 -14 21 -40 l5 -40
5 40 c5 54 33 56 37 3 4 -44 22 -52 22 -10 0 45 -14 57 -70 58 l-50 1 1 -46z"/>
<path d="M4180 3494 c0 -24 5 -44 10 -44 6 0 10 18 10 40 0 29 4 40 15 40 11
0 15 -11 15 -40 0 -22 5 -40 11 -40 6 0 9 17 7 43 -3 40 -5 42 -35 43 -32 1
-33 0 -33 -42z"/>
<path d="M3668 3493 c6 -2 18 -2 25 0 6 3 1 5 -13 5 -14 0 -19 -2 -12 -5z"/>
<path d="M1580 3210 c0 -60 0 -60 29 -60 37 0 61 23 61 60 0 37 -24 60 -61 60
-29 0 -29 0 -29 -60z m72 26 c14 -21 8 -46 -17 -62 -13 -8 -29 -13 -35 -9 -11
7 -14 78 -3 88 9 9 46 -2 55 -17z"/>
<path d="M1703 3210 c0 -36 2 -50 4 -32 2 17 2 47 0 65 -2 17 -4 3 -4 -33z"/>
<path d="M1747 3263 c-16 -15 -5 -44 23 -58 17 -9 30 -19 30 -24 0 -13 -28
-21 -47 -14 -14 5 -15 3 -7 -6 20 -22 59 -9 62 20 3 22 -2 29 -27 37 -17 6
-31 15 -31 20 0 14 27 22 47 15 11 -4 14 -3 9 5 -8 13 -48 16 -59 5z"/>
<path d="M1838 3263 c20 -4 22 -10 22 -59 0 -30 5 -54 10 -54 6 0 10 24 10 54
0 49 2 55 23 59 12 2 -3 4 -33 4 -30 0 -45 -2 -32 -4z"/>
<path d="M1930 3210 c0 -33 4 -60 10 -60 6 0 10 27 10 60 0 33 -4 60 -10 60
-6 0 -10 -27 -10 -60z"/>
<path d="M1982 3208 l1 -63 6 50 6 50 28 -47 c16 -27 33 -48 38 -48 5 0 8 28
7 63 -1 49 -2 53 -5 20 -2 -24 -7 -43 -11 -43 -4 0 -18 18 -32 40 -14 22 -28
40 -32 40 -5 0 -7 -28 -6 -62z"/>
<path d="M2115 3256 c-21 -15 -25 -67 -5 -90 14 -18 47 -21 70 -6 10 6 5 9
-19 8 -33 -1 -51 14 -51 42 0 26 17 43 44 43 14 0 26 3 26 8 0 14 -44 11 -65
-5z"/>
<path d="M2213 3263 c13 -4 17 -15 17 -59 0 -30 5 -54 10 -54 6 0 10 23 10 50
0 43 3 52 23 60 17 7 11 9 -28 8 -27 0 -42 -2 -32 -5z"/>
<path d="M3734 3075 c1 -28 11 -33 20 -9 9 24 7 34 -8 34 -9 0 -13 -10 -12
-25z"/>
<path d="M1532 2830 c-11 -33 -17 -60 -13 -60 5 0 11 9 14 20 3 13 14 20 30
20 17 0 28 -7 32 -20 3 -11 10 -20 16 -20 7 0 -21 86 -37 112 -11 18 -21 5
-42 -52z m48 3 c0 -7 -9 -13 -20 -13 -17 0 -18 3 -8 25 8 19 14 22 20 13 4 -7
8 -19 8 -25z"/>
<path d="M1642 2833 l-2 -63 38 1 c36 1 36 2 7 8 -28 6 -30 10 -36 61 l-6 55
-1 -62z"/>
<path d="M1730 2830 l0 -60 38 1 c30 2 32 3 10 6 -27 4 -28 7 -28 59 0 30 -4
54 -10 54 -6 0 -10 -27 -10 -60z"/>
<path d="M580 2080 c0 -33 4 -60 10 -60 6 0 10 13 10 29 0 25 5 30 28 34 l27
4 -27 2 c-21 1 -28 6 -28 20 0 14 8 21 28 24 22 3 20 4 -10 6 l-38 1 0 -60z"/>
<path d="M670 2081 c0 -34 4 -61 10 -61 6 0 10 11 10 25 0 14 4 25 10 25 5 0
17 -11 26 -25 9 -14 21 -25 26 -25 5 0 2 10 -6 21 -11 17 -12 25 -3 40 17 27
-2 53 -42 57 l-31 3 0 -60z m58 37 c8 -8 9 -15 1 -25 -18 -21 -39 -15 -39 12
0 27 18 33 38 13z"/>
<path d="M786 2118 c-9 -12 -16 -29 -16 -38 0 -27 30 -60 54 -60 49 0 75 70
38 103 -26 23 -58 21 -76 -5z m74 -38 c0 -18 -7 -33 -18 -39 -26 -14 -52 5
-52 39 0 34 26 53 52 39 11 -6 18 -21 18 -39z"/>
<path d="M900 2080 c0 -33 4 -60 10 -60 6 0 10 19 10 43 l0 42 21 -35 21 -34
19 34 18 35 1 -42 c0 -24 5 -43 10 -43 6 0 10 27 10 60 0 68 -12 77 -37 25 -9
-19 -20 -35 -23 -35 -3 0 -14 16 -23 35 -25 52 -37 43 -37 -25z"/>
<path d="M2141 2088 c-1 -65 0 -68 22 -68 13 0 28 5 35 12 28 28 2 88 -32 75
-10 -4 -16 2 -19 21 -2 15 -5 -3 -6 -40z m44 -24 c0 -19 -5 -29 -15 -29 -16 0
-25 28 -16 51 10 25 31 10 31 -22z"/>
<path d="M2234 2091 c1 -48 5 -66 16 -69 12 -4 13 -2 3 9 -6 8 -14 39 -16 69
-4 51 -4 50 -3 -9z"/>
<path d="M2812 2088 c3 -60 4 -63 30 -66 35 -4 55 29 39 65 -8 18 -17 24 -31
20 -16 -4 -20 0 -20 19 0 13 -5 24 -10 24 -7 0 -10 -24 -8 -62z m56 -18 c3
-21 -11 -39 -30 -40 -10 0 -10 54 -1 64 12 12 28 0 31 -24z"/>
<path d="M1982 2115 c-7 -8 -8 -15 -3 -15 5 0 11 -17 13 -37 2 -29 8 -38 23
-40 11 -2 14 0 8 3 -16 7 -17 74 -2 74 6 0 4 7 -5 15 -18 18 -18 18 -34 0z"/>
<path d="M2054 2099 c-5 -9 -2 -10 9 -6 8 3 21 -1 27 -9 10 -11 9 -14 -8 -14
-24 0 -44 -21 -34 -37 4 -7 21 -11 38 -11 29 1 30 2 24 42 -4 32 -10 42 -27
44 -11 2 -25 -2 -29 -9z m41 -49 c3 -6 -1 -13 -10 -16 -19 -8 -30 0 -20 15 8
14 22 14 30 1z"/>
<path d="M2280 2089 c-17 -31 2 -69 35 -69 14 0 25 4 25 8 0 5 -10 8 -21 8
-12 -1 -24 5 -26 12 -3 7 5 12 22 12 22 0 26 4 23 23 -4 31 -43 35 -58 6z m48
-7 c2 -7 -6 -12 -17 -12 -21 0 -27 11 -14 24 9 9 26 2 31 -12z"/>
<path d="M2429 2089 c-8 -16 -8 -28 0 -45 18 -41 71 -25 71 21 0 44 -50 61
-71 24z m55 -12 c8 -12 7 -21 -6 -33 -20 -20 -38 -11 -38 20 0 39 23 46 44 13z"/>
<path d="M2520 2064 c0 -24 5 -44 10 -44 6 0 10 16 10 35 0 21 6 37 17 43 13
8 11 10 -10 10 -25 0 -27 -4 -27 -44z"/>
<path d="M2644 2095 c-7 -18 3 -35 22 -35 8 0 14 -7 14 -16 0 -12 -6 -15 -21
-11 -15 4 -19 3 -12 -4 16 -16 47 -7 51 14 2 11 -6 20 -23 27 -30 11 -24 34 7
24 14 -4 18 -2 14 5 -10 16 -46 14 -52 -4z"/>
<path d="M2724 2070 c1 -43 2 -45 34 -47 32 -1 32 -1 32 43 0 54 -18 59 -22 7
-4 -53 -31 -51 -39 2 l-7 40 2 -45z"/>
<path d="M2916 2095 c-9 -9 -16 -21 -16 -26 0 -23 22 -49 40 -49 13 0 20 -7
20 -20 0 -11 5 -20 10 -20 7 0 10 24 8 63 -3 54 -6 62 -24 65 -12 2 -29 -4
-38 -13z m42 -27 c-2 -21 -8 -33 -18 -33 -19 0 -26 45 -8 56 23 15 29 10 26
-23z"/>
<path d="M3000 2078 c0 -45 11 -59 43 -56 25 2 27 5 26 48 -2 34 -3 38 -6 15
-9 -62 -43 -69 -43 -9 0 19 -4 34 -10 34 -5 0 -10 -15 -10 -32z"/>
<path d="M3102 2098 c-15 -15 -16 -50 0 -66 14 -14 44 -16 52 -4 3 5 -4 8 -16
8 -12 -1 -23 5 -25 12 -3 7 5 12 22 12 22 0 26 4 23 23 -3 25 -36 35 -56 15z
m46 -16 c2 -7 -6 -12 -17 -12 -21 0 -27 11 -14 24 9 9 26 2 31 -12z"/>
<path d="M3180 2064 c0 -24 5 -44 10 -44 6 0 10 16 10 35 0 21 6 37 17 43 13
8 11 10 -10 10 -25 0 -27 -4 -27 -44z"/>
<path d="M3245 2093 c27 -66 27 -74 10 -93 -10 -11 -13 -20 -8 -20 6 0 15 6
21 13 16 19 53 117 44 117 -4 0 -14 -15 -21 -32 l-13 -33 -11 33 c-5 17 -14
32 -20 32 -5 0 -6 -8 -2 -17z"/>
<path d="M2373 2063 c9 -2 23 -2 30 0 6 3 -1 5 -18 5 -16 0 -22 -2 -12 -5z"/>
<path d="M2588 2063 c6 -2 18 -2 25 0 6 3 1 5 -13 5 -14 0 -19 -2 -12 -5z"/>
<path d="M2634 1645 c1 -30 20 -27 24 3 2 14 -2 22 -11 22 -10 0 -14 -9 -13
-25z"/>
<path d="M2674 1351 c1 -48 5 -66 16 -69 12 -4 13 -2 3 9 -6 8 -14 39 -16 69
-4 51 -4 50 -3 -9z"/>
<path d="M2260 1389 c0 -5 5 -7 10 -4 6 3 10 8 10 11 0 2 -4 4 -10 4 -5 0 -10
-5 -10 -11z"/>
<path d="M2260 1317 c0 -29 -5 -58 -12 -65 -9 -9 -9 -12 0 -12 6 0 16 9 22 19
13 25 13 111 0 111 -5 0 -10 -24 -10 -53z"/>
<path d="M2313 1363 c-21 -8 -16 -71 6 -78 32 -10 51 5 51 40 0 38 -22 53 -57
38z m41 -51 c-13 -20 -25 -20 -38 1 -7 10 -5 21 4 32 12 15 15 15 29 0 12 -12
13 -19 5 -33z"/>
<path d="M2403 1325 c0 -27 2 -38 4 -22 2 15 2 37 0 50 -2 12 -4 0 -4 -28z"/>
<path d="M2441 1321 l2 -46 6 40 c4 26 11 40 21 40 10 0 17 -14 21 -40 l7 -40
-2 45 c-1 42 -3 45 -28 46 -27 1 -28 -1 -27 -45z"/>
<path d="M2603 1363 c-19 -7 -16 -70 3 -77 23 -9 44 -7 44 4 0 5 -6 7 -13 4
-8 -3 -20 2 -27 11 -17 20 -1 51 24 49 9 -1 16 2 16 7 0 10 -27 11 -47 2z"/>
<path d="M2720 1361 c0 -5 7 -8 16 -7 28 2 27 -21 -1 -28 -40 -10 -29 -41 16
-42 34 -2 35 -1 31 30 -3 17 -9 37 -14 44 -12 14 -48 17 -48 3z m38 -53 c-6
-18 -28 -21 -28 -4 0 9 7 16 16 16 9 0 14 -5 12 -12z"/>
<path d="M2800 1338 c0 -45 11 -59 43 -56 25 2 27 5 26 48 -2 34 -3 38 -6 15
-9 -62 -43 -69 -43 -9 0 19 -4 34 -10 34 -5 0 -10 -15 -10 -32z"/>
<path d="M2897 1363 c-15 -14 -6 -34 19 -43 29 -12 22 -34 -8 -24 -14 4 -18 2
-14 -5 11 -17 46 -13 53 6 4 11 -1 22 -15 31 -28 18 -29 36 -2 29 11 -3 18 -1
14 4 -6 10 -38 12 -47 2z"/>
<path d="M2983 1363 c-19 -7 -16 -70 3 -77 24 -9 44 -7 44 5 0 5 -4 8 -9 5
-12 -8 -41 3 -41 15 0 5 14 9 30 9 33 0 35 3 20 31 -11 19 -23 22 -47 12z m37
-24 c0 -5 -9 -9 -20 -9 -22 0 -27 16 -7 23 15 5 27 -1 27 -14z"/>
<path d="M2538 1323 c6 -2 18 -2 25 0 6 3 1 5 -13 5 -14 0 -19 -2 -12 -5z"/>
<path d="M597 580 c9 -34 20 -59 26 -57 6 2 16 21 22 43 l12 39 12 -42 c6 -24
15 -43 20 -43 4 0 13 19 20 43 7 23 15 50 17 60 3 9 1 17 -4 17 -6 0 -13 -18
-17 -40 -8 -49 -22 -52 -31 -5 -8 45 -24 41 -39 -11 l-12 -39 -7 30 c-15 58
-17 65 -26 65 -4 0 -1 -27 7 -60z"/>
<path d="M753 580 c-1 -43 2 -55 6 -35 5 23 12 31 34 33 24 3 27 0 27 -27 0
-17 5 -31 10 -31 6 0 10 27 10 60 0 33 -4 60 -10 60 -5 0 -10 -11 -10 -25 0
-21 -5 -25 -29 -25 -25 0 -30 5 -34 28 -2 15 -4 -2 -4 -38z"/>
<path d="M870 580 l0 -60 43 2 c36 1 38 2 10 5 -27 4 -33 9 -33 28 0 18 6 25
28 28 l27 4 -27 2 c-21 1 -28 6 -28 20 0 14 8 21 28 24 22 3 20 4 -10 6 l-38
1 0 -60z"/>
<path d="M971 578 c1 -35 4 -51 6 -35 5 34 30 35 45 2 6 -14 15 -25 20 -25 12
0 10 14 -4 28 -9 9 -9 17 2 36 17 33 0 56 -41 56 l-29 0 1 -62z m54 27 c0 -13
-8 -21 -22 -23 -17 -3 -23 2 -23 16 0 10 3 22 7 26 13 13 38 1 38 -19z"/>
<path d="M1070 580 l0 -60 43 2 c36 1 38 2 10 5 -27 4 -33 9 -33 28 0 18 6 25
28 28 l27 4 -27 2 c-21 1 -28 6 -28 20 0 15 8 21 33 24 28 3 26 4 -10 5 l-43
2 0 -60z"/>
<path d="M1592 598 c-15 -15 -16 -50 0 -66 14 -14 44 -16 52 -4 3 5 -4 8 -16
8 -12 -1 -23 5 -25 12 -3 7 5 12 22 12 22 0 26 4 23 23 -3 25 -36 35 -56 15z
m46 -16 c2 -7 -6 -12 -17 -12 -21 0 -27 11 -14 24 9 9 26 2 31 -12z"/>
<path d="M1670 604 c0 -6 5 -15 11 -21 9 -9 8 -18 -5 -37 -9 -15 -12 -26 -7
-26 6 0 15 8 21 18 10 16 10 16 20 0 6 -10 16 -18 21 -18 6 0 3 10 -5 22 -11
16 -12 26 -5 40 6 11 8 22 5 25 -3 3 -8 -2 -12 -11 -6 -16 -8 -16 -25 0 -11 9
-19 13 -19 8z"/>
<path d="M1761 540 c1 -36 4 -55 6 -42 3 12 12 22 22 22 23 0 41 20 41 46 0
27 -19 44 -48 41 -20 -1 -22 -6 -21 -67z m44 24 c0 -19 -5 -29 -15 -29 -16 0
-25 28 -16 51 10 25 31 10 31 -22z"/>
<path d="M1850 563 c0 -24 5 -43 10 -43 6 0 10 16 10 35 0 22 6 38 18 44 14 9
13 10 -10 9 -26 -2 -28 -6 -28 -45z"/>
</g>
</svg>
