<?xml version="1.0" standalone="no"?>
<!DOCTYPE svg PUBLIC "-//W3C//DTD SVG 20010904//EN"
 "http://www.w3.org/TR/2001/REC-SVG-20010904/DTD/svg10.dtd">
<svg version="1.0" xmlns="http://www.w3.org/2000/svg"
 width="688.000000pt" height="1171.000000pt" viewBox="0 0 688.000000 1171.000000"
 preserveAspectRatio="xMidYMid meet">
<metadata>
Created by potrace 1.16, written by Peter Selinger 2001-2019
</metadata>
<g transform="translate(0.000000,1171.000000) scale(0.100000,-0.100000)"
fill="#000000" stroke="none">
<path d="M635 11656 c-39 -17 -81 -67 -90 -105 l-6 -30 -50 19 c-62 25 -69 25
-69 0 0 -19 -7 -20 -110 -20 -97 0 -112 2 -130 20 -11 11 -25 20 -30 20 -13 0
-50 -37 -50 -50 0 -13 37 -50 50 -50 5 0 19 9 30 20 26 26 89 27 120 2 17 -14
23 -32 27 -85 5 -63 5 -67 -16 -67 -26 0 -26 -7 -4 -56 16 -34 19 -86 23 -426
5 -383 5 -387 28 -417 l23 -31 -67 0 c-84 0 -129 -20 -154 -71 -19 -35 -20
-60 -20 -337 0 -244 -3 -306 -15 -335 -19 -46 -19 -57 0 -57 13 0 15 -372 15
-3287 0 -3263 0 -3288 20 -3321 11 -18 34 -41 52 -52 32 -20 53 -20 1191 -20
l1157 0 0 -75 0 -75 890 0 890 0 0 74 0 74 47 -14 c58 -18 63 -17 63 1 0 13
105 15 884 15 541 0 895 4 910 10 14 5 34 18 46 30 l20 20 0 -162 c0 -190 -8
-215 -77 -236 -31 -9 -361 -12 -1352 -12 -1159 0 -1311 2 -1311 15 0 19 -7 19
-60 0 -37 -13 -180 -15 -1047 -15 l-1005 0 -39 -22 c-66 -37 -69 -51 -69 -357
0 -264 0 -271 -20 -271 -25 0 -25 -13 0 -68 19 -42 20 -70 20 -825 0 -723 1
-783 17 -816 10 -19 31 -44 46 -55 l28 -21 1885 -3 1884 -2 0 -21 c0 -22 17
-20 72 7 22 11 112 14 458 14 423 0 430 0 430 -20 0 -24 -3 -24 55 1 43 19 48
19 64 5 38 -34 89 -9 77 39 -9 35 -54 45 -76 17 l-17 -21 -52 19 c-51 20 -51
20 -51 0 0 -19 -6 -19 -177 -14 -232 7 -233 7 -262 49 l-24 36 -4 396 c-3 356
-5 400 -21 428 -31 54 -70 65 -223 65 -109 0 -147 4 -192 19 -57 20 -57 20
-57 0 0 -20 -9 -20 -1011 -19 -848 1 -1016 4 -1044 16 -44 18 -65 18 -65 -1 0
-11 -12 -15 -50 -15 l-50 0 0 75 0 75 -255 0 -255 0 0 -76 c0 -84 4 -82 -78
-48 -32 13 -34 12 -39 -6 -4 -16 -14 -20 -48 -20 -40 0 -44 2 -50 30 -4 17
-18 44 -32 61 -48 56 -62 59 -294 59 -197 0 -214 -1 -249 -21 -37 -21 -80 -81
-80 -113 0 -14 -5 -14 -51 3 l-51 20 -6 -21 c-4 -17 -10 -19 -45 -14 -22 4
-44 9 -50 13 -36 22 -50 178 -22 234 9 16 30 39 48 49 31 19 57 20 890 20 740
0 863 -2 894 -15 19 -8 39 -15 44 -15 5 0 9 7 9 15 0 13 99 15 833 15 788 0
834 1 873 19 65 30 74 60 74 248 0 134 3 169 20 218 24 69 23 65 6 65 -9 0
-16 19 -20 58 -13 112 -48 132 -231 132 l-125 0 0 75 0 75 -660 0 -660 0 0
-75 c0 -41 -2 -75 -5 -75 -3 0 -22 7 -42 15 -45 19 -63 19 -63 0 0 -13 -24
-15 -157 -15 l-158 0 -25 52 c-34 72 -65 91 -150 96 -57 4 -75 0 -108 -18 -39
-22 -82 -82 -82 -114 0 -19 2 -19 -50 -1 -54 19 -70 19 -70 0 0 -11 -12 -15
-45 -15 -40 0 -45 3 -51 28 -10 41 -53 92 -90 108 -48 20 -530 20 -577 0 -40
-16 -86 -69 -94 -107 -3 -16 -7 -29 -8 -29 -1 0 -19 7 -38 15 -46 19 -67 19
-67 0 0 -9 -9 -15 -24 -15 -77 0 -106 47 -106 175 0 99 14 136 63 165 31 19
58 20 1029 20 974 0 997 0 1043 -20 58 -25 65 -25 65 0 0 20 7 20 1323 20
1265 0 1324 1 1363 19 81 37 75 -44 76 1153 0 999 1 1063 18 1113 18 52 18 53
0 58 -18 5 -19 17 -19 189 1 245 -13 278 -117 278 l-34 0 0 75 0 75 -605 0
-605 0 0 -75 0 -74 -46 19 c-56 24 -54 24 -54 0 0 -18 -7 -20 -55 -20 -52 0
-55 1 -55 25 0 31 -55 94 -97 111 -99 42 -231 -15 -250 -107 -3 -16 -7 -29 -8
-29 -2 0 -24 9 -50 20 -57 24 -55 24 -55 -1 0 -18 -5 -20 -52 -17 -48 3 -52 5
-59 32 -10 37 -55 85 -96 102 -26 11 -130 14 -531 14 -275 0 -514 -3 -532 -6
-43 -9 -108 -72 -116 -112 -4 -18 -8 -32 -10 -32 -2 0 -26 9 -54 20 -62 24
-60 24 -60 0 0 -19 -7 -20 -107 -20 l-108 0 -25 52 c-19 40 -35 57 -70 75
l-45 24 -362 -3 -361 -3 -39 -31 c-21 -17 -44 -49 -52 -70 -8 -21 -16 -40 -17
-42 -1 -2 -15 3 -31 11 -56 29 -73 30 -73 7 0 -19 -5 -21 -42 -18 -65 5 -82
36 -86 157 -4 113 8 150 61 178 30 17 105 18 1197 21 1127 2 1166 2 1221 -17
56 -19 57 -19 62 0 5 19 35 19 1304 19 1270 0 1299 0 1330 20 55 33 63 62 63
223 0 116 4 155 19 200 19 55 19 57 1 57 -16 0 -18 11 -22 99 -3 95 -5 101
-32 130 -42 44 -79 51 -258 51 l-158 0 0 75 0 75 -255 0 -255 0 0 -75 c0 -41
-4 -75 -9 -75 -5 0 -28 7 -51 15 -52 18 -50 18 -50 0 0 -11 -12 -15 -49 -15
-46 0 -49 1 -55 32 -9 44 -74 103 -122 111 -51 9 -537 9 -588 0 -48 -8 -113
-67 -122 -111 -7 -37 -8 -37 -64 -17 -52 18 -50 18 -50 0 0 -22 -308 -22 -370
0 -52 18 -50 18 -50 0 0 -11 -11 -15 -38 -15 -56 0 -81 31 -93 115 -5 37 -12
78 -15 90 -8 34 -57 75 -100 86 -22 5 -275 9 -564 9 -447 -1 -532 2 -569 15
-53 18 -51 18 -51 0 0 -13 -72 -15 -592 -15 -641 1 -621 -1 -659 56 -23 36
-25 113 -4 154 34 65 30 65 554 68 482 3 486 3 572 -33 11 -4 18 0 22 14 5 21
10 21 342 21 l337 0 38 38 c34 34 39 45 45 105 10 92 -2 190 -26 222 -17 21
-29 25 -70 25 l-49 0 0 80 0 80 -255 0 -255 0 0 -75 c0 -84 -1 -84 -70 -60
-52 18 -50 18 -50 0 0 -11 -12 -15 -44 -15 -41 0 -45 2 -55 33 -18 52 -68 94
-128 107 -33 7 -145 10 -310 8 -222 -3 -262 -5 -290 -20 -36 -20 -69 -62 -78
-101 -8 -31 -9 -32 -65 -12 -53 19 -50 19 -50 -6 0 -19 -4 -21 -37 -14 -21 3
-49 17 -63 31 -22 22 -25 33 -28 127 -3 82 -1 110 12 135 34 66 -45 62 1255
62 1165 0 1182 0 1221 -20 48 -25 50 -25 50 0 0 20 7 20 601 20 401 0 615 4
644 11 24 6 55 24 72 41 l28 29 5 282 c5 234 9 289 23 326 21 53 21 51 2 51
-12 0 -15 20 -16 118 -1 227 -15 253 -161 294 -68 19 -88 22 -88 11 0 -10 -40
-13 -205 -13 l-205 0 0 70 0 70 -815 0 -815 0 0 -70 c0 -78 -4 -81 -67 -55
-43 18 -43 18 -43 1 0 -9 -21 -15 -67 -19 -88 -9 -383 -9 -461 -1 -58 6 -62 9
-72 39 -11 33 -49 74 -87 94 -28 14 -441 15 -478 1 -37 -14 -84 -69 -91 -107
l-6 -32 -50 19 c-50 19 -50 19 -55 -1 -6 -22 -14 -23 -64 -9 -51 14 -69 55
-69 159 0 48 6 96 14 116 29 69 -41 65 1139 65 921 0 1070 -2 1107 -15 53 -19
60 -19 60 0 0 13 121 15 953 17 875 3 955 4 983 20 53 29 64 67 64 230 0 119
4 155 20 203 24 69 24 65 5 65 -13 0 -15 31 -15 218 0 119 -4 234 -9 255 -14
59 -46 87 -98 87 l-43 0 0 75 0 75 -650 0 -650 0 0 -70 c0 -41 -4 -70 -10 -70
-6 0 -27 7 -47 15 -44 19 -53 19 -53 1 0 -22 -93 -26 -596 -26 -450 0 -476 1
-524 20 -28 11 -55 20 -60 20 -6 0 -10 -9 -10 -20 0 -20 -7 -20 -332 -20 -183
0 -356 3 -385 6 -48 6 -53 9 -63 39 -12 37 -54 79 -93 94 -46 18 -601 15 -635
-3 -39 -20 -72 -59 -86 -99 l-12 -36 -43 20 c-55 24 -71 24 -71 -1 0 -20 -5
-21 -296 -20 -268 1 -302 3 -348 21 -65 24 -76 24 -76 -2 0 -20 -4 -21 -45
-15 -99 13 -115 43 -115 216 0 136 10 168 63 200 31 20 60 20 1337 20 1279 0
1306 -1 1349 -20 54 -25 61 -25 61 0 0 20 7 20 1403 20 1343 0 1404 1 1443 19
68 31 72 49 76 336 3 237 2 252 -18 285 -19 33 -24 35 -77 38 l-57 3 0 74 0
75 -1135 0 -1135 0 0 -75 c0 -41 -2 -75 -4 -75 -2 0 -23 9 -47 20 -56 25 -69
25 -69 0 0 -20 -7 -20 -684 -20 -660 0 -685 1 -727 20 -56 25 -69 25 -69 0 0
-20 -7 -20 -444 -20 l-444 0 -7 30 c-9 40 -51 89 -92 106 -45 19 -395 19 -438
0z m434 -24 c52 -26 76 -65 76 -122 0 -57 -24 -96 -76 -122 -29 -15 -62 -18
-214 -18 -152 0 -185 3 -214 18 -52 26 -76 65 -76 122 0 57 24 96 76 122 29
15 62 18 214 18 152 0 185 -3 214 -18z m4841 -122 l0 -140 -1115 0 -1115 0 0
140 0 140 1115 0 1115 0 0 -140z m-5740 0 c0 -13 -7 -20 -20 -20 -13 0 -20 7
-20 20 0 13 7 20 20 20 13 0 20 -7 20 -20z m250 -25 c0 -8 6 -15 14 -15 7 0
33 7 56 15 23 8 44 15 45 15 2 0 6 -14 10 -30 9 -40 51 -89 92 -106 46 -20
390 -20 436 0 41 17 83 66 92 106 6 27 10 30 45 30 21 0 45 -7 54 -15 20 -20
36 -79 36 -133 0 -93 42 -143 125 -150 38 -3 55 -9 55 -18 0 -18 17 -18 70 1
23 8 44 15 45 15 1 0 5 -13 8 -29 9 -42 63 -99 105 -111 25 -8 193 -10 503 -8
l466 3 35 27 c22 17 43 46 53 73 17 44 19 45 61 45 32 0 44 -4 44 -15 0 -8 6
-15 14 -15 7 0 33 7 56 15 23 8 68 15 100 15 47 0 60 4 79 24 25 27 40 80 41
144 0 100 47 132 194 132 l95 0 -10 -32 c-5 -18 -9 -79 -9 -136 0 -128 13
-162 74 -192 41 -19 59 -20 589 -20 l547 0 0 -21 c0 -58 86 -129 155 -129 69
0 155 71 155 129 0 25 5 26 60 6 23 -8 46 -15 51 -15 5 0 9 7 9 15 0 13 56 15
445 15 471 0 499 3 533 47 10 14 12 -5 12 -104 0 -116 -1 -123 -26 -152 -14
-17 -42 -35 -62 -41 -24 -6 -509 -10 -1424 -10 -1369 0 -1388 0 -1388 19 0 20
-1 20 -57 0 -54 -18 -94 -19 -1360 -19 -947 0 -1310 -3 -1326 -11 -12 -6 -32
-21 -44 -32 l-23 -20 0 217 c0 170 3 224 15 253 8 19 15 42 15 49 0 8 -7 14
-15 14 -11 0 -15 12 -15 50 0 28 -7 66 -14 85 l-15 35 50 0 c37 0 49 -4 49
-15z m1640 0 c0 -8 6 -15 14 -15 7 0 33 7 56 15 36 13 125 15 558 15 462 0
514 -2 495 -15 -26 -18 -39 -59 -48 -147 -9 -94 -30 -118 -99 -118 -30 0 -73
7 -96 15 -23 8 -49 15 -56 15 -8 0 -14 -7 -14 -15 0 -11 -11 -15 -42 -15 -42
0 -44 1 -68 52 -47 98 -15 93 -548 96 -310 2 -479 0 -504 -8 -42 -12 -96 -69
-105 -111 -3 -16 -7 -29 -8 -29 -1 0 -22 7 -45 15 -54 19 -70 19 -70 -1 0 -14
-9 -16 -51 -12 -78 8 -98 33 -109 141 -5 47 -13 95 -19 106 -6 11 -11 22 -11
25 0 3 173 6 385 6 336 0 385 -2 385 -15z m1480 0 c0 -8 6 -15 14 -15 7 0 33
7 56 15 23 8 44 15 46 15 2 0 4 -34 4 -75 l0 -75 1135 0 1135 0 0 75 0 75 36
0 c76 0 94 -34 94 -182 0 -98 0 -98 -34 -136 l-34 -37 -461 -3 c-459 -3 -461
-3 -461 18 0 25 -7 25 -64 0 l-46 -19 -6 27 c-18 75 -86 132 -159 132 -73 0
-141 -57 -159 -132 l-6 -28 -539 0 c-362 0 -548 4 -569 11 -18 6 -41 26 -53
45 -19 31 -20 46 -17 153 2 81 7 123 17 134 17 22 71 23 71 2z m-866 -149
c106 -44 106 -208 0 -252 -27 -11 -123 -14 -486 -14 -505 0 -499 -1 -545 69
-43 63 -21 148 49 191 32 19 52 20 491 20 368 0 464 -3 491 -14z m2182 -72
c46 -22 74 -70 74 -128 0 -64 -21 -100 -73 -125 -54 -26 -70 -26 -122 -1 -51
25 -75 65 -75 125 0 110 99 175 196 129z m-2769 -754 c46 -28 67 -65 67 -119
0 -57 -28 -101 -78 -125 -29 -14 -76 -16 -313 -16 -311 0 -326 3 -370 69 -43
63 -21 148 49 191 31 19 51 20 323 20 270 0 292 -1 322 -20z m3433 -120 l0
-140 -625 0 -625 0 0 140 0 140 625 0 625 0 0 -140z m-5010 -25 c0 -8 6 -15
14 -15 7 0 33 7 56 15 23 8 67 15 96 15 60 0 87 -20 98 -72 3 -17 6 -1457 6
-3200 0 -3122 0 -3169 20 -3207 32 -63 61 -71 259 -71 145 0 171 -2 171 -15 0
-19 16 -19 70 0 23 8 44 15 45 15 1 0 5 -13 8 -29 7 -35 50 -87 88 -106 40
-21 603 -22 653 -1 38 16 81 67 91 109 7 25 11 27 57 27 48 0 50 -1 43 -22 -4
-13 -10 -73 -12 -135 -5 -132 6 -168 66 -201 38 -22 46 -22 494 -22 l455 0 6
-33 c13 -69 90 -122 168 -115 63 7 97 31 128 94 l25 51 53 -18 c51 -17 52 -17
52 2 0 18 10 19 343 19 383 1 392 3 432 70 27 47 29 227 2 278 l-18 32 786 0
c771 0 785 0 785 -19 0 -20 1 -20 57 0 68 23 150 25 181 3 l22 -15 0 -385 c0
-427 0 -428 -64 -458 -31 -14 -120 -16 -915 -16 -874 0 -881 0 -881 20 0 25
-7 25 -64 0 l-46 -19 0 79 0 80 -890 0 -890 0 0 -80 0 -80 -1154 0 -1153 0
-34 23 c-19 13 -39 38 -46 57 -9 27 -12 799 -12 3308 -1 2902 1 3272 14 3272
19 0 19 10 0 58 -13 33 -15 87 -13 340 3 287 4 302 24 329 34 46 58 53 197 53
106 0 127 -2 127 -15z m720 0 c0 -8 4 -15 9 -15 5 0 28 7 51 15 56 20 57 20
65 -15 9 -40 51 -89 92 -106 25 -11 99 -14 316 -14 273 0 284 1 327 23 36 17
50 33 70 74 23 49 28 53 60 53 79 0 83 -18 87 -315 2 -137 8 -267 13 -287 14
-48 52 -78 101 -78 28 0 39 -4 39 -15 0 -8 4 -15 9 -15 5 0 28 7 51 15 56 20
57 20 63 -14 8 -38 54 -91 94 -107 20 -9 71 -14 136 -14 134 0 179 20 217 98
l25 52 198 0 c168 0 197 -2 197 -15 0 -8 5 -15 10 -15 6 0 27 7 47 15 19 8 59
15 87 15 128 0 130 5 134 335 4 288 8 306 67 331 21 9 69 14 125 14 90 0 91 0
83 -22 -4 -13 -8 -78 -8 -145 0 -116 1 -123 25 -148 46 -50 48 -50 390 -55
l324 -5 7 -35 c10 -46 75 -106 124 -116 21 -4 54 -2 75 5 45 13 110 81 110
114 0 36 8 38 61 16 61 -23 59 -23 59 1 0 19 7 20 193 20 202 0 249 7 285 40
l22 21 0 -116 c0 -110 -1 -115 -21 -115 -22 0 -21 -17 8 -74 18 -34 19 -306 2
-356 -7 -17 -25 -38 -43 -48 -29 -16 -104 -17 -978 -20 l-948 -2 0 24 0 25
-60 -25 -60 -24 -1062 0 c-1039 0 -1064 -1 -1095 -20 -60 -36 -63 -56 -63
-421 0 -322 0 -329 -20 -329 -25 0 -25 -7 0 -70 19 -49 20 -74 20 -605 0 -546
-1 -555 -20 -555 -25 0 -25 -13 0 -68 19 -41 19 -69 20 -548 l0 -504 -25 0
-24 0 24 -52 25 -53 0 -710 c0 -793 -3 -758 70 -797 33 -17 87 -18 1142 -18
1101 0 1108 0 1108 -20 0 -25 16 -25 71 0 43 19 70 20 1177 20 l1132 0 0 -24
0 -25 62 26 c75 30 162 29 184 -2 11 -15 14 -92 14 -377 0 -352 0 -358 -19
-348 -11 5 -46 10 -79 10 -33 0 -79 7 -102 15 -53 19 -60 19 -60 0 0 -13 -98
-15 -842 -13 l-842 3 -8 32 c-18 69 -108 123 -183 109 -49 -10 -113 -68 -121
-112 -7 -39 -7 -39 -64 -19 -53 19 -60 19 -60 0 0 -11 -12 -15 -51 -15 -45 0
-50 2 -44 18 25 59 32 180 14 261 -12 59 -54 101 -100 101 -19 0 -29 5 -29 15
0 19 -7 19 -60 0 -49 -17 -55 -15 -63 24 -13 66 -107 121 -183 106 -47 -8
-111 -70 -120 -114 l-6 -31 -120 0 c-130 0 -167 -10 -208 -55 -24 -25 -25 -32
-25 -153 0 -70 4 -137 8 -149 8 -22 6 -23 -41 -23 -49 0 -49 0 -66 45 -28 73
-104 115 -182 100 -47 -8 -111 -70 -120 -114 -4 -17 -8 -31 -9 -31 -1 0 -22 7
-45 15 -53 19 -60 19 -60 0 0 -12 -19 -15 -112 -15 l-113 0 -25 53 c-18 38
-36 58 -65 74 -39 22 -49 23 -333 23 -225 0 -300 -3 -325 -14 -41 -17 -83 -66
-92 -106 -4 -16 -8 -30 -10 -30 -1 0 -22 7 -45 15 -54 19 -70 19 -70 0 0 -13
-25 -15 -165 -15 -185 0 -211 7 -245 63 -20 32 -20 76 -20 3203 0 2691 -2
3178 -14 3217 l-14 47 229 0 c197 0 229 -2 229 -15z m1720 0 c0 -8 4 -15 9
-15 5 0 28 7 51 15 35 12 107 15 396 15 l353 0 -24 -35 c-18 -27 -25 -56 -31
-116 -8 -99 -28 -129 -82 -129 -35 0 -39 3 -62 52 -46 97 -25 93 -471 96 -335
2 -393 1 -419 -13 -43 -22 -79 -65 -86 -103 -7 -35 -10 -36 -82 -6 -32 13 -34
12 -39 -6 -6 -22 -36 -26 -78 -10 -34 13 -55 64 -55 137 -1 32 -7 75 -14 96
l-14 37 324 0 c281 0 324 -2 324 -15z m1190 0 c0 -8 5 -15 10 -15 6 0 27 7 47
15 19 8 39 15 44 15 5 0 9 -34 9 -75 l0 -75 650 0 650 0 0 75 0 75 31 0 c70 0
89 -37 89 -172 0 -165 -22 -178 -305 -178 -187 0 -195 1 -195 19 0 20 -1 20
-55 1 -52 -18 -56 -18 -61 -2 -18 56 -31 76 -62 100 -30 23 -46 27 -97 27 -89
0 -128 -32 -159 -127 -5 -17 -28 -18 -303 -18 -166 0 -314 4 -334 10 -19 6
-46 22 -60 36 -23 24 -24 32 -24 144 0 102 3 121 19 139 24 26 106 31 106 6z
m-660 -150 c99 -51 96 -196 -5 -245 -39 -19 -63 -20 -401 -20 -400 0 -406 1
-451 69 -43 64 -20 156 48 193 31 16 65 18 407 18 310 0 378 -2 402 -15z
m1475 -69 c48 -20 75 -68 75 -133 0 -44 -5 -58 -31 -87 -58 -67 -149 -67 -208
-1 -26 30 -31 44 -31 88 0 112 93 175 195 133z m-2534 -66 c28 0 39 -4 39 -15
0 -8 4 -15 9 -15 5 0 28 7 51 15 56 20 57 20 63 -14 8 -38 54 -91 94 -107 25
-11 112 -14 401 -14 363 0 369 0 411 23 40 20 71 61 85 110 4 13 16 17 48 17
24 0 54 7 67 17 l24 16 -5 -167 c-4 -147 -7 -170 -25 -194 -27 -36 -96 -42
-164 -13 -59 26 -69 26 -69 1 0 -19 -7 -20 -200 -20 l-200 0 -6 28 c-9 38 -49
89 -84 107 -42 22 -249 21 -296 -1 -40 -19 -72 -60 -80 -103 l-6 -30 -53 24
c-56 24 -65 23 -65 -7 0 -21 -32 -24 -75 -8 -45 17 -55 61 -55 235 l0 156 26
-20 c17 -13 41 -21 65 -21z m536 -250 c45 -27 66 -64 66 -114 0 -57 -28 -102
-81 -127 -37 -18 -57 -21 -146 -17 -114 4 -143 15 -176 71 -39 64 -15 154 51
189 50 27 241 26 286 -2z m-770 -750 c65 -39 86 -107 54 -173 -37 -77 -55 -82
-301 -82 -191 0 -219 2 -243 18 -89 58 -86 190 4 239 30 16 59 18 244 18 191
0 213 -2 242 -20z m2393 -120 l0 -140 -790 0 -790 0 0 140 0 140 790 0 790 0
0 -140z m-3108 -10 c22 0 28 -5 28 -21 0 -22 17 -21 72 7 36 18 35 19 43 -16
9 -42 42 -80 89 -101 36 -16 68 -19 242 -19 191 0 203 1 245 23 34 18 50 35
69 75 24 50 26 52 67 52 76 0 77 -7 83 -350 6 -327 6 -331 73 -367 28 -16 69
-18 355 -21 315 -3 322 -4 322 -23 0 -22 18 -20 72 7 45 23 48 19 48 -66 l0
-80 520 0 520 0 0 79 0 80 263 3 c231 3 266 5 290 21 42 27 57 59 64 131 4 46
10 66 19 66 17 0 17 -2 -2 51 -12 35 -15 83 -15 229 1 162 4 188 20 210 24 34
61 39 61 10 0 -17 4 -20 18 -15 92 40 101 41 139 20 57 -30 63 -51 63 -217 0
-129 -2 -148 -16 -148 -9 0 -14 -6 -12 -12 38 -103 40 -115 36 -360 -3 -264
-7 -282 -61 -322 -28 -21 -38 -21 -649 -24 -617 -3 -620 -3 -625 18 -3 11 -6
20 -7 20 0 0 -25 -9 -54 -20 -51 -20 -77 -20 -1231 -20 l-1178 0 -37 -25 -36
-24 0 333 c0 271 3 341 15 376 8 23 15 46 15 51 0 5 -7 9 -15 9 -13 0 -15 30
-15 209 l0 209 37 -19 c21 -10 50 -19 65 -19z m1262 -17 c-4 -10 -9 -70 -12
-133 -3 -108 -2 -117 20 -150 44 -65 40 -65 489 -68 l407 -3 6 -30 c14 -74
120 -133 195 -111 44 14 111 81 111 111 0 29 13 33 60 16 52 -18 50 -18 50 0
0 13 36 15 265 15 308 0 351 6 395 57 l32 35 -4 122 c-2 66 -8 129 -12 139 -7
16 1 17 99 17 98 0 107 -1 100 -17 -17 -41 -25 -127 -24 -263 1 -110 -3 -156
-15 -189 -19 -53 -19 -51 -1 -51 12 0 15 -13 15 -61 0 -125 -10 -129 -335
-129 l-255 0 0 70 0 70 -520 0 -520 0 0 -70 c0 -78 -1 -79 -70 -55 -53 19 -50
19 -50 -5 0 -20 -6 -20 -287 -19 -330 0 -373 5 -411 43 l-27 26 -5 298 c-4
197 -10 306 -18 325 l-12 27 171 0 c159 0 171 -1 163 -17z m136 -3 c0 -11 2
-20 4 -20 2 0 25 9 51 20 26 11 49 20 51 20 2 0 4 -34 4 -75 l0 -75 815 0 815
0 0 75 0 75 38 0 c68 0 84 -29 85 -159 2 -106 -8 -134 -60 -168 -24 -16 -57
-18 -318 -18 l-290 0 -3 22 -3 22 -46 -20 c-48 -20 -63 -18 -63 9 0 28 -38 81
-72 102 -40 24 -116 26 -158 5 -35 -18 -71 -67 -79 -109 l-7 -31 -339 -3
c-423 -4 -476 0 -518 38 l-32 28 0 120 c0 143 9 162 82 162 36 0 43 -3 43 -20z
m983 -201 c95 -49 111 -165 33 -236 -31 -29 -43 -33 -91 -33 -49 0 -60 4 -92
33 -31 29 -37 41 -41 89 -5 66 14 110 61 138 36 22 97 26 130 9z m437 -514 l0
-145 -495 0 -495 0 0 145 0 145 495 0 495 0 0 -145z m-1935 -646 c68 -60 68
-148 -1 -209 l-35 -30 -297 0 c-280 0 -299 1 -330 20 -57 35 -77 111 -45 177
33 71 42 73 375 73 l297 0 36 -31z m775 -104 l0 -135 -235 0 -235 0 0 135 0
135 235 0 235 0 0 -135z m-1672 -5 c35 0 42 -3 42 -20 0 -24 -3 -24 50 -5 56
20 57 20 65 -15 8 -38 39 -76 78 -98 27 -15 68 -17 282 -20 314 -4 345 -1 395
44 22 20 44 51 50 70 11 32 14 34 56 34 32 0 44 -4 44 -15 0 -8 2 -15 4 -15 2
0 23 7 46 15 69 24 70 24 70 -60 l0 -75 255 0 255 0 0 80 0 80 34 0 c55 0 75
-25 87 -105 10 -72 5 -161 -13 -200 -5 -12 -24 -30 -41 -41 -30 -18 -54 -19
-357 -19 l-324 0 -6 22 -5 23 -53 -25 -54 -25 -488 0 -487 0 -37 -25 -36 -24
0 98 c0 62 6 114 15 141 8 23 15 46 15 51 0 5 -7 9 -15 9 -12 0 -15 16 -15 82
l0 81 23 -21 c16 -15 36 -22 65 -22z m583 -680 c592 0 599 0 599 -20 0 -11 2
-20 5 -20 2 0 27 9 55 20 48 19 74 20 558 20 279 -1 527 -5 551 -9 70 -14 93
-45 107 -147 8 -52 20 -94 30 -105 17 -18 15 -19 -69 -19 l-87 0 0 75 0 75
-255 0 -255 0 0 -75 c0 -41 -4 -75 -9 -75 -5 0 -28 7 -51 15 -23 8 -44 15 -46
15 -2 0 -4 -7 -4 -15 0 -12 -19 -15 -114 -15 l-114 0 -12 34 c-17 54 -78 102
-137 111 -97 13 -195 -40 -209 -114 -7 -35 -15 -37 -74 -16 -23 8 -44 15 -46
15 -2 0 -4 -7 -4 -15 0 -11 -11 -15 -43 -15 -41 0 -43 2 -64 48 -14 28 -37 57
-59 72 -37 25 -40 25 -279 28 -156 2 -257 0 -283 -7 -56 -15 -99 -54 -113
-102 -14 -45 -12 -44 -69 -24 -52 18 -50 18 -50 -1 0 -12 -9 -14 -42 -12 -31
2 -46 10 -62 31 -18 25 -21 45 -24 163 l-4 134 38 -25 37 -25 598 0z m240
-177 c16 -10 39 -36 50 -60 26 -54 18 -104 -27 -152 l-32 -36 -272 -3 c-259
-3 -273 -2 -305 18 -83 51 -85 180 -3 230 31 19 50 20 296 20 232 0 267 -2
293 -17z m584 -14 c64 -57 66 -145 5 -204 -27 -25 -40 -30 -99 -33 -107 -6
-171 42 -171 131 0 89 57 137 162 137 61 0 71 -3 103 -31z m905 -104 l0 -135
-235 0 -235 0 0 135 0 135 235 0 235 0 0 -135z m1606 102 c66 -60 56 -171 -19
-217 -30 -19 -52 -20 -337 -20 -285 0 -307 1 -337 20 -46 28 -66 72 -60 134 4
41 10 55 41 83 l36 33 320 0 320 0 36 -33z m764 -102 l0 -135 -230 0 -230 0 0
135 0 135 230 0 230 0 0 -135z m-4679 -5 c35 0 39 -3 39 -25 0 -30 1 -30 50
-5 44 23 60 25 60 9 0 -27 36 -82 69 -105 36 -24 36 -24 304 -24 293 0 301 1
350 59 14 17 28 44 32 61 6 28 10 30 51 30 40 0 44 -2 44 -25 0 -30 -3 -30 55
-5 60 26 62 25 70 -10 8 -37 39 -76 75 -95 38 -20 152 -20 189 0 38 19 78 68
86 105 6 29 9 30 57 30 50 0 50 0 42 -27 -5 -16 -9 -85 -9 -155 l0 -128 30
-30 c36 -36 102 -50 238 -50 76 0 87 -2 87 -17 0 -29 37 -82 72 -103 40 -24
116 -26 158 -5 34 18 80 74 80 99 0 25 21 28 68 12 36 -13 42 -13 42 -1 0 8
15 17 38 21 54 9 79 38 93 103 13 64 6 218 -11 251 -6 12 -9 24 -6 27 3 3 39
2 81 -2 65 -6 75 -9 75 -26 0 -23 -2 -23 51 1 30 13 66 20 112 20 67 0 68 0
82 -33 7 -18 17 -65 21 -105 7 -79 31 -128 74 -149 19 -9 112 -13 358 -13 325
0 334 -1 339 -20 3 -11 6 -20 7 -20 0 0 25 9 54 20 50 19 76 20 548 20 526 0
524 0 567 48 13 14 23 52 32 122 7 55 19 107 25 115 9 11 35 15 96 15 78 0 86
-2 116 -29 32 -29 33 -31 36 -125 3 -83 2 -96 -12 -96 -19 0 -19 2 0 -51 21
-60 20 -328 -2 -370 -32 -63 53 -59 -1369 -59 -1144 0 -1295 2 -1295 15 0 18
2 18 -50 0 -38 -13 -192 -15 -1204 -15 -810 0 -1173 -3 -1201 -11 -22 -6 -50
-20 -62 -32 l-23 -20 0 225 c0 178 3 233 15 261 8 20 15 41 15 47 0 5 -7 10
-15 10 -13 0 -15 23 -15 151 l0 150 26 -20 c17 -13 41 -21 65 -21z m3029 -25
c0 -30 1 -30 50 -5 48 25 60 25 60 3 0 -29 37 -82 72 -103 31 -19 51 -20 346
-20 331 0 343 1 385 48 11 12 25 38 32 59 13 36 15 38 57 38 37 0 43 -3 46
-22 l3 -22 50 19 c27 11 52 20 54 20 3 0 5 -31 5 -70 l0 -70 255 0 255 0 0 70
0 70 80 0 c44 0 80 -3 80 -6 0 -3 -5 -14 -10 -24 -6 -11 -14 -58 -19 -106 -7
-73 -13 -90 -35 -113 l-26 -26 -515 -3 c-500 -2 -516 -2 -554 18 -49 25 -51
25 -51 0 0 -20 -7 -20 -330 -20 -416 0 -406 -3 -421 147 -5 48 -16 97 -24 109
-8 13 -15 26 -15 29 0 3 38 5 85 5 84 0 85 0 85 -25z m-1320 -5 c0 -11 2 -20
5 -20 3 0 23 9 45 20 22 11 44 20 50 20 6 0 10 -28 10 -70 l0 -70 255 0 255 0
0 70 0 70 45 0 c68 0 78 -22 79 -171 0 -105 -2 -122 -20 -146 -25 -33 -94 -46
-94 -19 0 19 2 19 -50 1 -47 -17 -60 -13 -60 16 0 30 -67 97 -108 109 -20 5
-54 7 -75 3 -50 -8 -114 -67 -123 -112 l-7 -32 -138 3 c-136 3 -139 3 -166 31
-28 27 -28 29 -28 156 0 152 4 161 76 161 42 0 49 -3 49 -20z m468 -254 c31
-34 37 -56 32 -116 -6 -84 -119 -137 -201 -95 -40 21 -69 71 -69 118 0 130
149 189 238 93z m-1160 -731 c89 -54 89 -181 -1 -235 -30 -19 -53 -20 -387
-20 -325 0 -358 2 -389 18 -107 57 -86 224 31 252 18 5 186 8 373 7 319 -2
342 -3 373 -22z m1594 15 c20 -6 50 -26 67 -46 57 -64 37 -170 -39 -209 -25
-13 -109 -15 -552 -15 -495 0 -525 1 -552 19 -102 68 -80 224 36 251 51 12
996 12 1040 0z m570 0 c20 -6 50 -26 67 -46 25 -28 31 -43 31 -82 0 -91 -55
-142 -155 -142 -100 0 -155 51 -155 142 0 99 100 159 212 128z m1518 -130 l0
-140 -580 0 -580 0 0 140 0 140 580 0 580 0 0 -140z m-4700 -10 c29 0 39 -5
43 -19 5 -20 5 -20 56 0 46 17 51 17 51 2 0 -9 11 -35 25 -58 43 -75 45 -75
455 -75 395 0 393 0 443 59 14 17 28 44 32 61 6 28 9 30 56 30 27 0 49 -2 49
-4 0 -2 -7 -17 -15 -32 -20 -38 -21 -211 -1 -257 7 -18 26 -42 42 -52 28 -19
56 -20 859 -25 l829 -5 7 -34 c20 -97 132 -149 225 -105 41 20 73 58 81 96 8
39 16 42 68 19 l45 -20 0 24 0 25 719 2 719 3 31 23 31 23 0 -66 c0 -58 -2
-65 -20 -65 -25 0 -25 2 3 -62 18 -45 22 -68 19 -145 l-3 -91 -32 9 c-17 5
-53 9 -78 9 -26 0 -66 7 -89 15 -23 8 -46 15 -51 15 -5 0 -9 -7 -9 -15 0 -13
-133 -15 -1139 -15 -986 0 -1144 2 -1181 15 -23 8 -46 15 -51 15 -5 0 -9 -7
-9 -15 0 -13 -129 -15 -1102 -15 -862 0 -1108 3 -1128 13 -13 7 -35 28 -47 46
-23 34 -23 37 -23 373 l0 339 26 -20 c16 -13 41 -21 64 -21z m1481 -91 c42
-59 37 -59 617 -59 l529 0 34 23 c31 21 60 64 73 110 4 13 16 17 56 17 43 0
50 -3 50 -20 0 -18 2 -18 41 -5 54 19 69 19 69 -2 0 -29 37 -82 72 -103 49
-30 163 -28 209 3 31 21 60 64 73 110 4 13 16 17 56 17 43 0 50 -3 50 -20 0
-18 2 -18 41 -5 23 8 45 15 50 15 5 0 9 -31 9 -70 l0 -70 605 0 605 0 0 70 c0
79 6 87 66 76 28 -6 38 -14 50 -41 20 -48 19 -207 -1 -245 -32 -62 -5 -60
-780 -60 -620 0 -705 2 -705 15 0 8 -4 15 -9 15 -5 0 -25 -7 -44 -15 -49 -20
-54 -19 -60 14 -4 16 -20 45 -37 65 -61 69 -152 72 -221 7 -22 -22 -42 -51
-45 -69 l-6 -32 -815 0 c-908 0 -870 -3 -899 66 -23 55 -16 224 10 253 24 27
106 31 106 5 0 -16 3 -16 80 11 34 12 35 12 43 -19 5 -16 17 -42 28 -57z
m1652 -143 c18 -7 45 -28 60 -45 54 -65 27 -185 -48 -217 -103 -43 -195 20
-195 133 0 41 5 58 27 84 27 32 74 58 106 59 10 0 32 -6 50 -14z m-1088 -766
c50 -24 77 -67 77 -125 0 -102 -104 -164 -198 -119 -103 49 -97 202 11 250 41
18 62 17 110 -6z m-211 -165 c9 -46 65 -102 111 -111 48 -9 104 1 135 24 14
10 36 41 50 68 l25 51 53 -18 c51 -17 52 -17 52 2 0 29 46 25 79 -9 33 -32 46
-114 35 -214 -10 -98 -25 -118 -86 -118 l-38 0 0 75 0 75 -260 0 -260 0 0 -75
c0 -41 -2 -75 -4 -75 -2 0 -23 7 -46 15 -23 8 -46 15 -51 15 -5 0 -9 -7 -9
-15 0 -11 -12 -15 -44 -15 -76 0 -90 33 -84 194 3 84 6 97 27 120 34 36 68 44
197 45 l112 1 6 -35z m-1208 -211 c74 -35 104 -139 58 -202 -44 -59 -61 -62
-379 -62 -272 0 -292 1 -323 20 -70 43 -92 128 -49 191 44 66 59 69 375 69
241 0 289 -2 318 -16z m664 -3 c46 -24 73 -72 73 -128 0 -118 -145 -175 -231
-90 -68 68 -49 175 38 219 45 23 77 23 120 -1z m940 -121 l0 -140 -240 0 -240
0 0 140 0 140 240 0 240 0 0 -140z m575 120 c50 -24 75 -65 75 -122 0 -105
-100 -167 -196 -122 -74 35 -99 143 -47 205 28 33 74 58 107 59 11 0 38 -9 61
-20z m-1845 -145 c0 -8 7 -15 15 -15 9 0 32 7 52 15 44 18 43 19 43 -1 0 -32
43 -92 80 -113 91 -51 210 1 234 102 l6 27 115 0 c96 0 115 -3 115 -15 0 -8 7
-15 15 -15 9 0 32 7 52 15 19 8 37 15 39 15 2 0 4 -34 4 -75 l0 -75 260 0 260
0 0 75 0 75 110 0 c91 0 110 -3 110 -15 0 -8 6 -15 14 -15 7 0 33 7 56 15 53
19 50 19 50 -8 0 -33 44 -92 83 -111 63 -29 149 -15 190 32 11 11 25 38 32 59
13 36 16 38 55 37 23 0 48 -8 56 -16 35 -35 40 -218 8 -280 -29 -56 -42 -58
-414 -58 -340 0 -340 0 -340 21 0 23 -8 23 -73 -5 -35 -15 -38 -15 -43 1 -31
107 -125 158 -217 119 -40 -16 -86 -69 -94 -107 l-5 -29 -450 0 c-502 0 -501
0 -532 65 -15 31 -17 57 -14 147 3 101 5 112 27 129 29 24 101 26 101 4z
m1090 -234 c46 -24 73 -72 72 -127 -1 -119 -145 -176 -230 -93 -53 52 -55 143
-4 192 51 49 106 59 162 28z m800 -646 l0 -145 -865 0 -865 0 0 145 0 145 865
0 865 0 0 -145z m-2031 -633 c52 -26 75 -63 75 -120 0 -35 -7 -58 -24 -81 -40
-57 -62 -61 -337 -61 -277 0 -297 4 -340 69 -43 63 -21 148 49 191 31 19 51
20 288 20 223 0 259 -2 289 -18z m565 4 c101 -42 105 -194 6 -247 -73 -39
-173 -16 -218 51 -19 28 -23 44 -19 83 4 50 23 78 72 108 36 23 112 25 159 5z
m1826 -126 l0 -140 -635 0 -635 0 0 140 0 140 635 0 635 0 0 -140z m-3215 -7
c35 -5 45 -10 45 -24 0 -24 7 -24 61 0 l43 20 12 -36 c17 -47 60 -91 104 -104
22 -6 134 -9 296 -7 l261 3 35 27 c22 17 43 46 53 73 17 44 19 45 61 45 37 0
44 -3 44 -20 0 -11 4 -20 9 -20 5 0 30 9 56 20 26 11 48 20 50 20 1 0 5 -13 8
-29 8 -38 54 -91 94 -107 18 -8 56 -14 85 -14 77 0 126 31 158 97 l25 53 109
0 c99 0 107 -1 100 -17 -4 -10 -10 -71 -12 -135 -4 -142 7 -176 72 -208 40
-19 61 -20 348 -20 l306 0 6 -34 c8 -44 72 -102 121 -112 75 -14 169 42 182
107 8 39 14 41 63 24 53 -19 60 -19 60 0 0 13 30 15 208 16 232 0 265 7 298
57 37 54 42 222 9 305 -6 15 -1 17 46 17 72 0 125 -16 144 -43 21 -31 21 -127
-1 -127 -9 0 -14 -6 -12 -12 38 -101 40 -122 36 -272 -5 -179 -16 -212 -83
-233 -30 -8 -256 -12 -862 -12 -809 -1 -823 -1 -823 18 0 19 -1 19 -37 3 -35
-15 -118 -17 -918 -22 l-880 -5 -32 -23 -33 -23 0 199 c0 152 4 210 15 242 8
23 15 46 15 51 0 5 -7 9 -15 9 -13 0 -15 23 -15 147 0 144 0 146 20 128 10 -9
40 -20 65 -22z m1815 -23 c0 -11 5 -20 10 -20 6 0 28 9 50 20 22 11 42 20 45
20 3 0 5 -34 5 -75 l0 -75 660 0 660 0 0 75 0 75 38 0 c69 0 82 -25 82 -165 0
-188 -11 -195 -305 -195 -196 0 -205 1 -205 19 0 20 -1 20 -55 1 -52 -18 -56
-18 -61 -2 -24 83 -71 124 -146 129 -83 6 -146 -42 -172 -129 -5 -17 -28 -18
-305 -18 -260 0 -305 2 -335 17 -52 24 -66 63 -66 183 0 128 14 160 73 160 20
0 27 -5 27 -20z m825 -224 c45 -19 75 -69 75 -124 0 -57 -24 -96 -75 -123 -56
-30 -106 -20 -157 31 -33 33 -38 43 -38 85 0 109 95 172 195 131z m-1932 -677
c71 -37 99 -105 72 -175 -9 -25 -30 -53 -48 -66 -30 -22 -42 -23 -237 -26
-231 -3 -254 2 -298 68 -44 66 -12 169 63 200 31 13 422 12 448 -1z m807 -129
l0 -140 -235 0 -235 0 0 140 0 140 235 0 235 0 0 -140z m-1502 -10 c22 0 32
-5 32 -15 0 -8 4 -15 9 -15 5 0 28 7 51 15 23 8 44 15 45 15 2 0 6 -14 10 -30
9 -40 51 -89 92 -106 24 -10 86 -14 231 -14 185 0 201 1 242 23 36 17 50 33
70 74 24 52 26 53 68 53 31 0 42 -4 42 -15 0 -8 4 -15 9 -15 5 0 28 7 51 15
23 8 46 15 51 15 5 0 9 -34 9 -75 l0 -75 255 0 255 0 0 75 0 75 50 0 c38 0 50
-4 50 -15 0 -19 11 -19 57 0 37 16 140 20 159 7 31 -20 36 -59 43 -331 7 -306
10 -323 71 -336 16 -4 30 -13 30 -21 0 -18 9 -18 53 1 50 21 54 19 61 -16 9
-44 73 -106 120 -114 76 -15 166 39 184 110 8 28 12 30 60 33 42 2 52 0 52
-12 0 -20 8 -20 53 -1 20 8 41 15 47 15 6 0 10 -30 10 -75 l0 -75 260 0 260 0
0 75 0 75 300 0 c260 0 300 -2 300 -15 0 -19 6 -19 63 1 36 12 80 15 205 12
191 -4 202 -9 202 -92 1 -70 14 -124 39 -150 12 -12 21 -25 21 -29 0 -4 -94
-7 -208 -7 -181 0 -216 3 -265 19 -57 20 -57 20 -57 0 0 -19 -19 -19 -1877
-17 -1529 3 -1882 5 -1901 16 -13 7 -32 28 -42 45 -19 30 -20 54 -20 484 l0
453 33 -20 c17 -11 47 -20 65 -20z m3742 -15 c0 -8 4 -15 9 -15 5 0 28 7 51
15 30 11 84 15 182 15 210 0 228 -15 228 -199 l0 -110 -35 15 c-25 10 -75 14
-178 14 -116 0 -155 4 -200 19 -56 20 -57 20 -57 0 0 -16 -7 -19 -45 -19 l-45
0 0 75 0 75 -260 0 -260 0 0 -74 0 -75 -55 19 c-55 19 -55 19 -55 -1 0 -18 -6
-20 -46 -17 -43 3 -47 5 -59 41 -7 21 -21 48 -32 59 -39 45 -65 48 -379 48
-254 0 -301 -2 -331 -16 -39 -19 -83 -78 -83 -111 0 -22 -1 -22 -41 -8 -53 19
-69 19 -69 0 0 -17 -14 -19 -40 -5 -25 13 -40 62 -40 134 -1 34 -7 78 -14 99
l-14 37 934 0 c824 0 934 -2 934 -15z m-903 -155 c41 -24 63 -67 63 -120 0
-55 -26 -96 -75 -120 -38 -18 -63 -20 -311 -20 -148 0 -285 5 -305 10 -116 32
-134 200 -26 254 27 13 77 16 327 16 275 0 297 -1 327 -20z m783 -120 l0 -140
-230 0 -230 0 0 140 0 140 230 0 230 0 0 -140z m-1652 -10 c6 0 12 -9 12 -21
0 -22 17 -21 72 7 35 18 35 19 41 -15 8 -38 54 -91 94 -107 25 -11 100 -14
320 -14 266 0 290 1 327 20 45 22 86 74 86 108 0 20 5 22 50 22 43 0 50 -3 50
-20 0 -24 -2 -24 60 0 l50 20 0 -75 0 -75 260 0 260 0 0 75 0 75 45 0 c38 0
45 -3 45 -20 0 -25 -2 -25 62 1 46 18 69 20 209 17 212 -4 199 10 199 -214 l0
-173 -35 15 c-25 10 -75 14 -178 14 -116 0 -155 4 -200 19 -56 20 -57 20 -57
0 0 -18 -9 -19 -300 -19 l-300 0 0 75 0 75 -260 0 -260 0 0 -70 c0 -78 -1 -79
-69 -55 -39 13 -41 13 -41 -5 0 -17 -7 -20 -50 -20 -40 0 -52 4 -56 18 -33
113 -132 162 -231 116 -39 -19 -83 -78 -83 -111 l0 -23 -52 20 c-29 11 -54 20
-55 20 -2 0 -3 -9 -3 -20 0 -40 -53 -16 -69 31 -6 18 -11 99 -11 185 l0 153
28 -15 c15 -7 33 -14 40 -14z m342 -245 c93 -48 97 -187 7 -240 -39 -23 -108
-24 -142 -1 -59 39 -82 124 -50 185 32 62 121 89 185 56z m800 -125 l0 -140
-235 0 -235 0 0 140 0 140 235 0 235 0 0 -140z m1768 -293 c4 -20 -25 -34 -40
-19 -15 15 -1 44 19 40 10 -2 19 -11 21 -21z"/>
<path d="M657 11530 c9 -34 20 -59 26 -57 6 2 16 21 22 43 l12 39 12 -42 c6
-24 15 -43 20 -43 4 0 13 19 20 43 7 23 15 50 17 60 3 9 1 17 -4 17 -6 0 -13
-18 -17 -40 -8 -49 -22 -52 -31 -5 -8 45 -24 41 -39 -11 l-12 -39 -7 30 c-15
58 -17 65 -26 65 -4 0 -1 -27 7 -60z"/>
<path d="M813 11530 c0 -36 2 -50 4 -32 2 17 2 47 0 65 -2 17 -4 3 -4 -33z"/>
<path d="M855 11581 c15 -6 21 -20 26 -62 l6 -54 1 53 c2 44 5 54 25 62 17 7
12 9 -28 9 -34 0 -44 -3 -30 -8z"/>
<path d="M950 11530 c0 -33 4 -60 10 -60 6 0 10 14 10 31 0 27 3 30 27 27 22
-2 29 -10 34 -33 4 -20 7 -8 6 35 0 36 -2 53 -4 38 -4 -23 -9 -28 -34 -28 -24
0 -29 4 -29 25 0 14 -4 25 -10 25 -6 0 -10 -27 -10 -60z"/>
<path d="M4701 11538 c-1 -65 0 -68 22 -68 13 0 28 5 35 12 28 28 2 88 -32 75
-10 -4 -16 2 -19 21 -2 15 -5 -3 -6 -40z m53 -36 c-16 -25 -38 -21 -42 7 -5
30 18 45 38 25 11 -11 12 -19 4 -32z"/>
<path d="M4792 11538 c2 -34 8 -63 13 -65 6 -2 9 22 7 62 -2 36 -8 65 -13 65
-6 0 -9 -27 -7 -62z"/>
<path d="M4553 11576 c-6 -10 -9 -26 -7 -35 12 -62 16 -71 31 -71 13 0 14 3 5
12 -16 16 -15 68 1 68 8 0 9 3 1 8 -6 4 -13 14 -16 22 -4 12 -6 11 -15 -4z"/>
<path d="M3839 11539 c-8 -16 -8 -28 0 -45 11 -25 45 -32 57 -12 4 6 3 8 -4 5
-18 -12 -42 4 -42 28 0 24 24 40 42 28 7 -3 8 -1 4 5 -12 19 -44 14 -57 -9z"/>
<path d="M3919 11539 c-8 -16 -8 -28 0 -45 18 -41 71 -25 71 21 0 44 -50 61
-71 24z m55 -12 c8 -12 7 -21 -6 -33 -20 -20 -38 -11 -38 20 0 39 23 46 44 13z"/>
<path d="M4010 11513 c0 -24 5 -43 10 -43 6 0 10 18 10 40 0 29 4 40 15 40 11
0 15 -11 15 -40 0 -50 18 -53 22 -3 4 52 28 56 28 4 0 -23 5 -41 10 -41 12 0
13 59 2 76 -4 7 -30 11 -59 11 l-53 -1 0 -43z"/>
<path d="M4150 11515 c0 -54 17 -61 22 -8 4 52 28 56 28 4 0 -23 5 -41 10 -41
6 0 10 15 10 34 0 33 14 55 27 42 3 -3 10 -23 14 -43 l7 -38 -1 45 -2 45 -57
3 -58 2 0 -45z"/>
<path d="M4300 11546 c-28 -35 11 -93 48 -70 35 22 22 84 -18 84 -10 0 -23 -7
-30 -14z m45 -32 c0 -19 -5 -29 -15 -29 -16 0 -25 28 -16 51 10 25 31 10 31
-22z"/>
<path d="M4390 11514 c0 -24 5 -44 10 -44 6 0 10 18 10 40 0 29 4 40 15 40 11
0 15 -11 15 -40 0 -22 5 -40 11 -40 6 0 9 17 7 43 -3 40 -5 42 -35 43 -32 1
-33 0 -33 -42z"/>
<path d="M4614 11549 c-5 -9 -2 -10 9 -6 8 3 21 -1 27 -9 10 -11 9 -14 -8 -14
-24 0 -44 -21 -34 -37 4 -7 21 -11 38 -11 29 1 30 2 24 42 -4 32 -10 42 -27
44 -11 2 -25 -2 -29 -9z m41 -49 c3 -6 -1 -13 -10 -16 -19 -8 -30 0 -20 15 8
14 22 14 30 1z"/>
<path d="M4853 11553 c-19 -7 -16 -70 3 -77 24 -9 44 -7 44 5 0 5 -4 8 -9 5
-12 -8 -41 3 -41 15 0 5 14 9 30 9 33 0 35 3 20 31 -11 19 -23 22 -47 12z m37
-24 c0 -5 -9 -9 -20 -9 -22 0 -27 16 -7 23 15 5 27 -1 27 -14z"/>
<path d="M4990 11539 c-17 -31 2 -69 35 -69 14 0 25 4 25 8 0 5 -10 8 -21 8
-12 -1 -24 5 -26 12 -3 7 5 12 22 12 22 0 26 4 23 23 -4 31 -43 35 -58 6z m48
-7 c2 -7 -6 -12 -17 -12 -21 0 -27 11 -14 24 9 9 26 2 31 -12z"/>
<path d="M5082 11535 c9 -19 9 -28 0 -37 -20 -20 -13 -32 8 -13 18 16 20 16
26 1 3 -9 11 -16 16 -16 6 0 3 11 -5 24 -14 21 -14 26 -1 45 8 11 11 21 5 21
-5 0 -14 -8 -20 -17 -9 -17 -10 -17 -16 0 -4 9 -11 17 -16 17 -5 0 -3 -11 3
-25z"/>
<path d="M5161 11491 c1 -36 4 -56 6 -43 3 12 12 22 22 22 25 0 41 20 41 52 0
30 0 30 -42 33 l-28 2 1 -66z m54 38 c8 -24 -16 -55 -34 -45 -12 8 -15 49 -4
59 13 14 32 7 38 -14z"/>
<path d="M5250 11514 c0 -24 5 -44 10 -44 6 0 10 16 10 35 0 21 6 37 17 43 13
8 11 10 -10 10 -25 0 -27 -4 -27 -44z"/>
<path d="M5322 11548 c-27 -27 -7 -78 29 -78 10 0 21 5 25 11 4 7 0 9 -13 5
-12 -4 -25 -1 -33 9 -11 13 -8 15 19 15 19 0 31 5 31 13 0 16 -20 37 -35 37
-6 0 -16 -5 -23 -12z m38 -19 c0 -5 -10 -9 -21 -9 -18 0 -19 2 -9 15 12 15 30
12 30 -6z"/>
<path d="M5403 11544 c-4 -11 2 -23 17 -34 15 -11 19 -19 11 -24 -6 -4 -15 -4
-21 -1 -5 3 -10 1 -10 -4 0 -17 40 -13 47 5 4 11 -2 23 -17 34 -15 11 -19 19
-11 24 6 4 16 4 21 1 6 -3 10 -1 10 4 0 17 -40 13 -47 -5z"/>
<path d="M5474 11545 c-7 -18 3 -35 22 -35 8 0 14 -7 14 -16 0 -12 -6 -15 -21
-11 -15 4 -19 3 -12 -4 16 -16 47 -7 51 14 2 11 -6 20 -23 27 -30 11 -24 34 7
24 14 -4 18 -2 14 5 -10 16 -46 14 -52 -4z"/>
<path d="M5553 11515 c0 -27 2 -38 4 -22 2 15 2 37 0 50 -2 12 -4 0 -4 -28z"/>
<path d="M5589 11539 c-8 -16 -8 -28 0 -45 18 -41 71 -25 71 21 0 44 -50 61
-71 24z m55 -12 c8 -12 7 -21 -6 -33 -20 -20 -38 -11 -38 20 0 39 23 46 44 13z"/>
<path d="M5680 11514 c0 -54 18 -59 22 -6 4 52 31 50 39 -3 l7 -40 -2 45 c-1
43 -2 45 -33 47 -33 1 -33 1 -33 -43z"/>
<path d="M4493 11513 c9 -2 23 -2 30 0 6 3 -1 5 -18 5 -16 0 -22 -2 -12 -5z"/>
<path d="M4933 11513 c9 -2 23 -2 30 0 6 3 -1 5 -18 5 -16 0 -22 -2 -12 -5z"/>
<path d="M1760 11231 c0 -34 4 -61 10 -61 6 0 10 11 10 25 0 14 4 25 10 25 5
0 17 -11 26 -25 9 -14 21 -25 26 -25 5 0 2 10 -6 21 -11 17 -12 25 -3 40 17
27 -2 53 -42 57 l-31 3 0 -60z m58 37 c8 -8 9 -15 1 -25 -18 -21 -39 -15 -39
12 0 27 18 33 38 13z"/>
<path d="M1860 11230 l0 -60 43 1 c38 1 39 2 12 8 -42 9 -48 48 -8 54 l28 4
-28 2 c-39 2 -33 34 8 42 27 6 26 7 -12 8 l-43 1 0 -60z"/>
<path d="M1976 11274 c-23 -22 -21 -81 3 -94 26 -13 58 -13 67 2 5 7 0 9 -14
6 -26 -7 -62 17 -62 42 0 25 36 49 62 42 14 -3 19 -1 14 6 -10 17 -52 15 -70
-4z"/>
<path d="M2071 11245 c-1 -55 11 -75 44 -75 33 0 45 20 44 75 l-2 50 -6 -48
c-7 -49 -23 -69 -48 -60 -13 5 -19 23 -26 78 -3 18 -5 10 -6 -20z"/>
<path d="M2190 11231 c0 -34 4 -61 10 -61 6 0 10 11 10 25 0 14 4 25 10 25 5
0 17 -11 26 -25 9 -14 21 -25 26 -25 5 0 2 10 -6 21 -11 17 -12 25 -3 40 17
27 -2 53 -42 57 l-31 3 0 -60z m58 37 c8 -8 9 -15 1 -25 -18 -21 -39 -15 -39
12 0 27 18 33 38 13z"/>
<path d="M2302 11278 c-20 -20 -13 -39 19 -50 39 -14 36 -44 -5 -40 -17 2 -25
-1 -21 -7 9 -16 51 -13 65 4 17 20 6 43 -25 51 -33 8 -30 40 3 37 12 -2 22 2
22 7 0 14 -44 12 -58 -2z"/>
<path d="M2390 11230 c0 -33 4 -60 10 -60 6 0 10 27 10 60 0 33 -4 60 -10 60
-6 0 -10 -27 -10 -60z"/>
<path d="M2430 11285 c0 -20 38 -109 47 -112 6 -2 20 22 31 53 25 64 25 64 13
64 -4 0 -14 -20 -21 -45 -7 -25 -16 -45 -21 -45 -4 0 -13 17 -19 38 -12 37
-30 65 -30 47z"/>
<path d="M2550 11230 l0 -60 38 1 c36 1 36 2 7 8 -38 8 -42 42 -5 52 25 7 25
7 -3 8 -39 1 -33 34 8 42 29 6 29 7 -7 8 l-38 1 0 -60z"/>
<path d="M4784 11085 c1 -28 11 -33 20 -9 9 24 7 34 -8 34 -9 0 -13 -10 -12
-25z"/>
<path d="M1482 10458 c-20 -20 -13 -39 19 -50 39 -14 36 -44 -5 -40 -17 2 -25
-1 -21 -7 9 -16 51 -13 65 4 17 20 6 43 -25 51 -33 8 -30 40 3 37 12 -2 22 2
22 7 0 14 -44 12 -58 -2z"/>
<path d="M1570 10410 l0 -60 43 1 c38 1 39 2 12 8 -42 9 -48 48 -8 54 l28 4
-28 2 c-39 2 -33 34 8 42 27 6 26 7 -12 8 l-43 1 0 -60z"/>
<path d="M1670 10410 l0 -60 43 2 c36 1 38 2 10 5 -33 4 -33 5 -33 59 0 30 -4
54 -10 54 -6 0 -10 -27 -10 -60z"/>
<path d="M1760 10410 l0 -60 43 1 c38 1 39 2 12 8 -42 9 -48 48 -8 54 l28 4
-28 2 c-39 2 -33 34 8 42 27 6 26 7 -12 8 l-43 1 0 -60z"/>
<path d="M1876 10454 c-23 -22 -21 -81 3 -94 26 -13 58 -13 67 2 5 7 0 9 -14
6 -26 -7 -62 17 -62 42 0 25 36 49 62 42 14 -3 19 -1 14 6 -10 17 -52 15 -70
-4z"/>
<path d="M1975 10461 c15 -6 21 -20 26 -62 l6 -54 1 53 c2 44 5 54 25 62 17 7
12 9 -28 9 -34 0 -44 -3 -30 -8z"/>
<path d="M4700 10431 c0 -27 3 -56 6 -65 13 -33 19 -14 16 49 -4 76 -22 89
-22 16z"/>
<path d="M5052 10418 c-2 -57 1 -68 14 -68 12 0 14 3 6 13 -6 7 -12 37 -15 67
-3 54 -3 54 -5 -12z"/>
<path d="M4761 10458 c0 -10 -6 -18 -12 -18 -8 0 -8 -4 -1 -12 6 -7 12 -26 14
-43 2 -21 9 -31 23 -33 18 -2 18 -2 3 8 -11 6 -18 23 -18 40 0 19 6 30 18 33
15 4 15 5 0 6 -9 0 -19 9 -21 19 -4 16 -5 16 -6 0z"/>
<path d="M4390 10393 c0 -24 5 -43 10 -43 6 0 10 16 10 35 0 22 6 38 18 44 14
9 13 10 -10 9 -26 -2 -28 -6 -28 -45z"/>
<path d="M4463 10433 c-19 -7 -16 -70 3 -77 24 -9 44 -7 44 5 0 5 -4 8 -9 5
-12 -8 -41 3 -41 15 0 5 14 9 30 9 33 0 35 3 20 31 -11 19 -23 22 -47 12z m37
-24 c0 -5 -9 -9 -20 -9 -22 0 -27 16 -7 23 15 5 27 -1 27 -14z"/>
<path d="M4537 10433 c-15 -14 -6 -34 19 -43 29 -12 22 -34 -8 -24 -14 4 -18
2 -14 -5 11 -17 46 -13 53 6 4 11 -1 22 -15 31 -28 18 -29 36 -2 29 11 -3 18
-1 14 4 -6 10 -38 12 -47 2z"/>
<path d="M4610 10408 c0 -45 11 -59 43 -56 25 2 27 5 26 48 -2 34 -3 38 -6 15
-9 -62 -43 -69 -43 -9 0 19 -4 34 -10 34 -5 0 -10 -15 -10 -32z"/>
<path d="M4882 10428 c-27 -27 -7 -78 30 -78 10 0 18 4 18 9 0 5 -8 8 -17 7
-14 -1 -18 7 -18 29 0 22 4 30 18 29 9 -1 17 2 17 7 0 13 -34 11 -48 -3z"/>
<path d="M4962 10428 c-7 -7 -12 -21 -12 -33 0 -46 53 -62 71 -21 21 45 -26
87 -59 54z m46 -37 c-3 -29 -25 -34 -41 -9 -8 12 -7 21 2 32 19 22 43 8 39
-23z"/>
<path d="M5090 10414 c0 -40 17 -64 45 -62 23 2 25 6 23 48 -1 40 -2 41 -5 10
-8 -60 -43 -64 -43 -4 0 19 -4 34 -10 34 -5 0 -10 -12 -10 -26z"/>
<path d="M5191 10391 l2 -46 6 40 c4 26 11 40 21 40 10 0 17 -14 21 -40 l5
-40 5 40 c5 54 33 56 37 3 4 -44 22 -52 22 -10 0 45 -14 57 -70 58 l-50 1 1
-46z"/>
<path d="M5330 10394 c0 -24 5 -44 10 -44 6 0 10 18 10 40 0 29 4 40 15 40 11
0 15 -11 15 -40 0 -22 5 -40 11 -40 6 0 9 17 7 43 -3 40 -5 42 -35 43 -32 1
-33 0 -33 -42z"/>
<path d="M4818 10393 c6 -2 18 -2 25 0 6 3 1 5 -13 5 -14 0 -19 -2 -12 -5z"/>
<path d="M2730 10110 c0 -60 0 -60 29 -60 37 0 61 23 61 60 0 37 -24 60 -61
60 -29 0 -29 0 -29 -60z m72 26 c14 -21 8 -46 -17 -62 -13 -8 -29 -13 -35 -9
-11 7 -14 78 -3 88 9 9 46 -2 55 -17z"/>
<path d="M2853 10110 c0 -36 2 -50 4 -32 2 17 2 47 0 65 -2 17 -4 3 -4 -33z"/>
<path d="M2897 10163 c-16 -15 -5 -44 23 -58 17 -9 30 -19 30 -24 0 -13 -28
-21 -47 -14 -14 5 -15 3 -7 -6 20 -22 59 -9 62 20 3 22 -2 29 -27 37 -17 6
-31 15 -31 20 0 14 27 22 47 15 11 -4 14 -3 9 5 -8 13 -48 16 -59 5z"/>
<path d="M2988 10163 c20 -4 22 -10 22 -59 0 -30 5 -54 10 -54 6 0 10 24 10
54 0 49 2 55 23 59 12 2 -3 4 -33 4 -30 0 -45 -2 -32 -4z"/>
<path d="M3080 10110 c0 -33 4 -60 10 -60 6 0 10 27 10 60 0 33 -4 60 -10 60
-6 0 -10 -27 -10 -60z"/>
<path d="M3132 10108 l1 -63 6 50 6 50 28 -47 c16 -27 33 -48 38 -48 5 0 8 28
7 63 -1 49 -2 53 -5 20 -2 -24 -7 -43 -11 -43 -4 0 -18 18 -32 40 -14 22 -28
40 -32 40 -5 0 -7 -28 -6 -62z"/>
<path d="M3265 10156 c-21 -15 -25 -67 -5 -90 14 -18 47 -21 70 -6 10 6 5 9
-19 8 -33 -1 -51 14 -51 42 0 26 17 43 44 43 14 0 26 3 26 8 0 14 -44 11 -65
-5z"/>
<path d="M3363 10163 c13 -4 17 -15 17 -59 0 -30 5 -54 10 -54 6 0 10 23 10
50 0 43 3 52 23 60 17 7 11 9 -28 8 -27 0 -42 -2 -32 -5z"/>
<path d="M4884 9975 c1 -28 11 -33 20 -9 9 24 7 34 -8 34 -9 0 -13 -10 -12
-25z"/>
<path d="M2682 9730 c-11 -33 -17 -60 -13 -60 5 0 11 9 14 20 3 13 14 20 30
20 17 0 28 -7 32 -20 3 -11 10 -20 16 -20 7 0 -21 86 -37 112 -11 18 -21 5
-42 -52z m48 3 c0 -7 -9 -13 -20 -13 -17 0 -18 3 -8 25 8 19 14 22 20 13 4 -7
8 -19 8 -25z"/>
<path d="M2792 9733 l-2 -63 38 1 c36 1 36 2 7 8 -28 6 -30 10 -36 61 l-6 55
-1 -62z"/>
<path d="M2880 9730 l0 -60 38 1 c30 2 32 3 10 6 -27 4 -28 7 -28 59 0 30 -4
54 -10 54 -6 0 -10 -27 -10 -60z"/>
<path d="M1730 8980 c0 -33 4 -60 10 -60 6 0 10 13 10 29 0 25 5 30 28 34 l27
4 -27 2 c-21 1 -28 6 -28 20 0 14 8 21 28 24 22 3 20 4 -10 6 l-38 1 0 -60z"/>
<path d="M1820 8981 c0 -34 4 -61 10 -61 6 0 10 11 10 25 0 14 4 25 10 25 5 0
17 -11 26 -25 9 -14 21 -25 26 -25 5 0 2 10 -6 21 -11 17 -12 25 -3 40 17 27
-2 53 -42 57 l-31 3 0 -60z m58 37 c8 -8 9 -15 1 -25 -18 -21 -39 -15 -39 12
0 27 18 33 38 13z"/>
<path d="M1936 9018 c-9 -12 -16 -29 -16 -38 0 -27 30 -60 54 -60 49 0 75 70
38 103 -26 23 -58 21 -76 -5z m74 -38 c0 -18 -7 -33 -18 -39 -26 -14 -52 5
-52 39 0 34 26 53 52 39 11 -6 18 -21 18 -39z"/>
<path d="M2050 8980 c0 -33 4 -60 10 -60 6 0 10 19 10 43 l0 42 21 -35 21 -34
19 34 18 35 1 -42 c0 -24 5 -43 10 -43 6 0 10 27 10 60 0 68 -12 77 -37 25 -9
-19 -20 -35 -23 -35 -3 0 -14 16 -23 35 -25 52 -37 43 -37 -25z"/>
<path d="M3291 8988 c-1 -65 0 -68 22 -68 13 0 28 5 35 12 28 28 2 88 -32 75
-10 -4 -16 2 -19 21 -2 15 -5 -3 -6 -40z m44 -24 c0 -19 -5 -29 -15 -29 -16 0
-25 28 -16 51 10 25 31 10 31 -22z"/>
<path d="M3384 8991 c1 -48 5 -66 16 -69 12 -4 13 -2 3 9 -6 8 -14 39 -16 69
-4 51 -4 50 -3 -9z"/>
<path d="M3962 8988 c3 -60 4 -63 30 -66 35 -4 55 29 39 65 -8 18 -17 24 -31
20 -16 -4 -20 0 -20 19 0 13 -5 24 -10 24 -7 0 -10 -24 -8 -62z m56 -18 c3
-21 -11 -39 -30 -40 -10 0 -10 54 -1 64 12 12 28 0 31 -24z"/>
<path d="M3132 9015 c-7 -8 -8 -15 -3 -15 5 0 11 -17 13 -37 2 -29 8 -38 23
-40 11 -2 14 0 8 3 -16 7 -17 74 -2 74 6 0 4 7 -5 15 -18 18 -18 18 -34 0z"/>
<path d="M3204 8999 c-5 -9 -2 -10 9 -6 8 3 21 -1 27 -9 10 -11 9 -14 -8 -14
-24 0 -44 -21 -34 -37 4 -7 21 -11 38 -11 29 1 30 2 24 42 -4 32 -10 42 -27
44 -11 2 -25 -2 -29 -9z m41 -49 c3 -6 -1 -13 -10 -16 -19 -8 -30 0 -20 15 8
14 22 14 30 1z"/>
<path d="M3430 8989 c-17 -31 2 -69 35 -69 14 0 25 4 25 8 0 5 -10 8 -21 8
-12 -1 -24 5 -26 12 -3 7 5 12 22 12 22 0 26 4 23 23 -4 31 -43 35 -58 6z m48
-7 c2 -7 -6 -12 -17 -12 -21 0 -27 11 -14 24 9 9 26 2 31 -12z"/>
<path d="M3579 8989 c-8 -16 -8 -28 0 -45 18 -41 71 -25 71 21 0 44 -50 61
-71 24z m55 -12 c8 -12 7 -21 -6 -33 -20 -20 -38 -11 -38 20 0 39 23 46 44 13z"/>
<path d="M3670 8964 c0 -24 5 -44 10 -44 6 0 10 16 10 35 0 21 6 37 17 43 13
8 11 10 -10 10 -25 0 -27 -4 -27 -44z"/>
<path d="M3794 8995 c-7 -18 3 -35 22 -35 8 0 14 -7 14 -16 0 -12 -6 -15 -21
-11 -15 4 -19 3 -12 -4 16 -16 47 -7 51 14 2 11 -6 20 -23 27 -30 11 -24 34 7
24 14 -4 18 -2 14 5 -10 16 -46 14 -52 -4z"/>
<path d="M3874 8970 c1 -43 2 -45 34 -47 32 -1 32 -1 32 43 0 54 -18 59 -22 7
-4 -53 -31 -51 -39 2 l-7 40 2 -45z"/>
<path d="M4066 8995 c-9 -9 -16 -21 -16 -26 0 -23 22 -49 40 -49 13 0 20 -7
20 -20 0 -11 5 -20 10 -20 7 0 10 24 8 63 -3 54 -6 62 -24 65 -12 2 -29 -4
-38 -13z m42 -27 c-2 -21 -8 -33 -18 -33 -19 0 -26 45 -8 56 23 15 29 10 26
-23z"/>
<path d="M4150 8978 c0 -45 11 -59 43 -56 25 2 27 5 26 48 -2 34 -3 38 -6 15
-9 -62 -43 -69 -43 -9 0 19 -4 34 -10 34 -5 0 -10 -15 -10 -32z"/>
<path d="M4252 8998 c-15 -15 -16 -50 0 -66 14 -14 44 -16 52 -4 3 5 -4 8 -16
8 -12 -1 -23 5 -25 12 -3 7 5 12 22 12 22 0 26 4 23 23 -3 25 -36 35 -56 15z
m46 -16 c2 -7 -6 -12 -17 -12 -21 0 -27 11 -14 24 9 9 26 2 31 -12z"/>
<path d="M4330 8964 c0 -24 5 -44 10 -44 6 0 10 16 10 35 0 21 6 37 17 43 13
8 11 10 -10 10 -25 0 -27 -4 -27 -44z"/>
<path d="M4395 8993 c27 -66 27 -74 10 -93 -10 -11 -13 -20 -8 -20 6 0 15 6
21 13 16 19 53 117 44 117 -4 0 -14 -15 -21 -32 l-13 -33 -11 33 c-5 17 -14
32 -20 32 -5 0 -6 -8 -2 -17z"/>
<path d="M3523 8963 c9 -2 23 -2 30 0 6 3 -1 5 -18 5 -16 0 -22 -2 -12 -5z"/>
<path d="M3738 8963 c6 -2 18 -2 25 0 6 3 1 5 -13 5 -14 0 -19 -2 -12 -5z"/>
<path d="M3784 8545 c1 -30 20 -27 24 3 2 14 -2 22 -11 22 -10 0 -14 -9 -13
-25z"/>
<path d="M3824 8251 c1 -48 5 -66 16 -69 12 -4 13 -2 3 9 -6 8 -14 39 -16 69
-4 51 -4 50 -3 -9z"/>
<path d="M3410 8289 c0 -5 5 -7 10 -4 6 3 10 8 10 11 0 2 -4 4 -10 4 -5 0 -10
-5 -10 -11z"/>
<path d="M3410 8217 c0 -29 -5 -58 -12 -65 -9 -9 -9 -12 0 -12 6 0 16 9 22 19
13 25 13 111 0 111 -5 0 -10 -24 -10 -53z"/>
<path d="M3463 8263 c-21 -8 -16 -71 6 -78 32 -10 51 5 51 40 0 38 -22 53 -57
38z m41 -51 c-13 -20 -25 -20 -38 1 -7 10 -5 21 4 32 12 15 15 15 29 0 12 -12
13 -19 5 -33z"/>
<path d="M3553 8225 c0 -27 2 -38 4 -22 2 15 2 37 0 50 -2 12 -4 0 -4 -28z"/>
<path d="M3591 8221 l2 -46 6 40 c4 26 11 40 21 40 10 0 17 -14 21 -40 l7 -40
-2 45 c-1 42 -3 45 -28 46 -27 1 -28 -1 -27 -45z"/>
<path d="M3753 8263 c-19 -7 -16 -70 3 -77 23 -9 44 -7 44 4 0 5 -6 7 -13 4
-8 -3 -20 2 -27 11 -17 20 -1 51 24 49 9 -1 16 2 16 7 0 10 -27 11 -47 2z"/>
<path d="M3870 8261 c0 -5 7 -8 16 -7 28 2 27 -21 -1 -28 -40 -10 -29 -41 16
-42 34 -2 35 -1 31 30 -3 17 -9 37 -14 44 -12 14 -48 17 -48 3z m38 -53 c-6
-18 -28 -21 -28 -4 0 9 7 16 16 16 9 0 14 -5 12 -12z"/>
<path d="M3950 8238 c0 -45 11 -59 43 -56 25 2 27 5 26 48 -2 34 -3 38 -6 15
-9 -62 -43 -69 -43 -9 0 19 -4 34 -10 34 -5 0 -10 -15 -10 -32z"/>
<path d="M4047 8263 c-15 -14 -6 -34 19 -43 29 -12 22 -34 -8 -24 -14 4 -18 2
-14 -5 11 -17 46 -13 53 6 4 11 -1 22 -15 31 -28 18 -29 36 -2 29 11 -3 18 -1
14 4 -6 10 -38 12 -47 2z"/>
<path d="M4133 8263 c-19 -7 -16 -70 3 -77 24 -9 44 -7 44 5 0 5 -4 8 -9 5
-12 -8 -41 3 -41 15 0 5 14 9 30 9 33 0 35 3 20 31 -11 19 -23 22 -47 12z m37
-24 c0 -5 -9 -9 -20 -9 -22 0 -27 16 -7 23 15 5 27 -1 27 -14z"/>
<path d="M3688 8223 c6 -2 18 -2 25 0 6 3 1 5 -13 5 -14 0 -19 -2 -12 -5z"/>
<path d="M1747 7480 c9 -34 20 -59 26 -57 6 2 16 21 22 43 l12 39 12 -42 c6
-24 15 -43 20 -43 4 0 13 19 20 43 7 23 15 50 17 60 3 9 1 17 -4 17 -6 0 -13
-18 -17 -40 -8 -49 -22 -52 -31 -5 -8 45 -24 41 -39 -11 l-12 -39 -7 30 c-15
58 -17 65 -26 65 -4 0 -1 -27 7 -60z"/>
<path d="M1903 7480 c-1 -43 2 -55 6 -35 5 23 12 31 34 33 24 3 27 0 27 -27 0
-17 5 -31 10 -31 6 0 10 27 10 60 0 33 -4 60 -10 60 -5 0 -10 -11 -10 -25 0
-21 -5 -25 -29 -25 -25 0 -30 5 -34 28 -2 15 -4 -2 -4 -38z"/>
<path d="M2020 7480 l0 -60 43 2 c36 1 38 2 10 5 -27 4 -33 9 -33 28 0 18 6
25 28 28 l27 4 -27 2 c-21 1 -28 6 -28 20 0 14 8 21 28 24 22 3 20 4 -10 6
l-38 1 0 -60z"/>
<path d="M2121 7478 c1 -35 4 -51 6 -35 5 34 30 35 45 2 6 -14 15 -25 20 -25
12 0 10 14 -4 28 -9 9 -9 17 2 36 17 33 0 56 -41 56 l-29 0 1 -62z m54 27 c0
-13 -8 -21 -22 -23 -17 -3 -23 2 -23 16 0 10 3 22 7 26 13 13 38 1 38 -19z"/>
<path d="M2220 7480 l0 -60 43 2 c36 1 38 2 10 5 -27 4 -33 9 -33 28 0 18 6
25 28 28 l27 4 -27 2 c-21 1 -28 6 -28 20 0 15 8 21 33 24 28 3 26 4 -10 5
l-43 2 0 -60z"/>
<path d="M2742 7498 c-15 -15 -16 -50 0 -66 14 -14 44 -16 52 -4 3 5 -4 8 -16
8 -12 -1 -23 5 -25 12 -3 7 5 12 22 12 22 0 26 4 23 23 -3 25 -36 35 -56 15z
m46 -16 c2 -7 -6 -12 -17 -12 -21 0 -27 11 -14 24 9 9 26 2 31 -12z"/>
<path d="M2820 7504 c0 -6 5 -15 11 -21 9 -9 8 -18 -5 -37 -9 -15 -12 -26 -7
-26 6 0 15 8 21 18 10 16 10 16 20 0 6 -10 16 -18 21 -18 6 0 3 10 -5 22 -11
16 -12 26 -5 40 6 11 8 22 5 25 -3 3 -8 -2 -12 -11 -6 -16 -8 -16 -25 0 -11 9
-19 13 -19 8z"/>
<path d="M2911 7440 c1 -36 4 -55 6 -42 3 12 12 22 22 22 23 0 41 20 41 46 0
27 -19 44 -48 41 -20 -1 -22 -6 -21 -67z m44 24 c0 -19 -5 -29 -15 -29 -16 0
-25 28 -16 51 10 25 31 10 31 -22z"/>
<path d="M3000 7463 c0 -24 5 -43 10 -43 6 0 10 16 10 35 0 22 6 38 18 44 14
9 13 10 -10 9 -26 -2 -28 -6 -28 -45z"/>
<path d="M1727 6552 c-38 -42 -6 -107 50 -100 24 2 28 8 31 36 3 28 0 32 -20
31 -13 0 -17 -3 -10 -6 6 -2 12 -13 12 -23 0 -22 -19 -30 -42 -18 -23 11 -24
64 -2 76 9 5 26 7 37 4 14 -3 18 -1 13 6 -11 18 -51 14 -69 -6z"/>
<path d="M1830 6510 c0 -33 4 -60 10 -60 6 0 10 11 10 25 0 14 6 25 13 25 8 0
20 -11 27 -25 17 -32 33 -33 18 0 -8 18 -8 28 1 39 21 25 -3 56 -44 56 l-35 0
0 -60z m59 41 c19 -12 6 -41 -19 -41 -15 0 -20 7 -20 25 0 26 14 31 39 16z"/>
<path d="M1955 6556 c-40 -29 -14 -106 36 -106 26 0 49 28 49 60 0 51 -45 76
-85 46z m70 -27 c9 -28 -3 -56 -26 -62 -23 -6 -49 17 -49 43 0 45 62 61 75 19z"/>
<path d="M2072 6525 c-1 -29 3 -56 10 -63 18 -18 56 -14 68 7 13 25 13 101 0
101 -5 0 -10 -22 -10 -49 0 -83 -56 -75 -63 9 l-4 45 -1 -50z"/>
<path d="M2191 6508 c1 -35 4 -51 6 -36 3 20 11 28 30 30 58 7 51 68 -8 68
l-29 0 1 -62z m48 43 c19 -12 6 -41 -19 -41 -13 0 -20 7 -20 18 0 31 14 39 39
23z"/>
<path d="M2670 6510 c0 -57 1 -60 24 -60 13 0 31 3 40 6 18 7 22 54 6 54 -7 0
-7 6 -1 18 13 25 -4 42 -41 42 -28 0 -28 -1 -28 -60z m55 30 c0 -8 -10 -16
-22 -18 -22 -3 -32 16 -16 32 12 11 38 2 38 -14z m4 -44 c9 -10 8 -16 -4 -26
-20 -16 -45 -6 -45 20 0 23 31 28 49 6z"/>
<path d="M2760 6565 c0 -2 9 -19 20 -37 11 -18 20 -44 21 -58 1 -23 2 -22 8 5
4 17 16 43 26 58 10 15 15 30 12 34 -4 3 -12 -6 -18 -21 -15 -33 -26 -33 -41
-1 -10 21 -28 35 -28 20z"/>
<path d="M3392 6528 c-15 -15 -16 -50 0 -66 14 -14 44 -16 52 -4 3 5 -4 8 -16
8 -12 -1 -23 5 -25 12 -3 7 5 12 22 12 22 0 26 4 23 23 -3 25 -36 35 -56 15z
m46 -16 c2 -7 -6 -12 -17 -12 -21 0 -27 11 -14 24 9 9 26 2 31 -12z"/>
<path d="M3470 6534 c0 -6 5 -15 11 -21 9 -9 8 -18 -5 -37 -9 -15 -12 -26 -7
-26 6 0 15 8 21 18 10 16 10 16 20 0 6 -10 16 -18 21 -18 6 0 3 10 -5 22 -11
16 -12 26 -5 40 6 11 8 22 5 25 -3 3 -8 -2 -12 -11 -6 -16 -8 -16 -25 0 -11 9
-19 13 -19 8z"/>
<path d="M3561 6470 c1 -36 4 -55 6 -42 3 12 12 22 22 22 23 0 41 20 41 46 0
27 -19 44 -48 41 -20 -1 -22 -6 -21 -67z m44 24 c0 -19 -5 -29 -15 -29 -16 0
-25 28 -16 51 10 25 31 10 31 -22z"/>
<path d="M3650 6493 c0 -24 5 -43 10 -43 6 0 10 16 10 35 0 22 6 38 18 44 14
9 13 10 -10 9 -26 -2 -28 -6 -28 -45z"/>
<path d="M4720 6510 c0 -33 4 -60 10 -60 6 0 10 14 10 31 0 27 3 30 27 27 22
-2 29 -10 34 -33 4 -20 7 -8 6 35 0 36 -2 53 -4 38 -4 -23 -9 -28 -34 -28 -24
0 -29 4 -29 25 0 14 -4 25 -10 25 -6 0 -10 -27 -10 -60z"/>
<path d="M4851 6514 c-21 -57 -22 -84 -1 -45 15 28 54 27 69 -1 11 -23 11 -23
6 3 -7 38 -34 99 -44 99 -4 0 -18 -25 -30 -56z m45 -11 c-2 -3 -11 -3 -19 -1
-11 2 -12 9 -5 28 l10 25 9 -24 c5 -13 7 -26 5 -28z"/>
<path d="M4954 6513 c12 -31 26 -58 32 -60 5 -2 20 24 32 57 11 33 17 60 12
60 -4 0 -14 -17 -20 -37 -19 -57 -26 -59 -45 -9 -10 25 -21 46 -26 46 -4 0 3
-26 15 -57z"/>
<path d="M5050 6510 c0 -33 4 -60 10 -60 6 0 10 27 10 60 0 33 -4 60 -10 60
-6 0 -10 -27 -10 -60z"/>
<path d="M5102 6508 c1 -50 2 -54 5 -20 2 23 8 42 13 42 5 0 19 -18 31 -40 13
-22 26 -40 31 -40 4 0 7 28 6 63 l-1 62 -6 -50 -6 -50 -28 48 c-15 26 -32 47
-37 47 -6 0 -9 -28 -8 -62z"/>
<path d="M5236 6554 c-21 -20 -20 -68 0 -89 9 -9 28 -15 43 -13 21 2 27 9 29
36 3 28 0 32 -20 31 -17 -1 -18 -3 -5 -6 20 -5 23 -39 3 -46 -19 -8 -56 20
-56 43 0 25 36 49 62 42 14 -3 19 -1 14 6 -10 17 -52 15 -70 -4z"/>
<path d="M5762 6528 c-27 -27 -7 -78 29 -78 10 0 21 5 25 11 4 7 0 9 -13 5
-12 -4 -25 -1 -33 9 -11 13 -8 15 19 15 19 0 31 5 31 13 0 16 -20 37 -35 37
-6 0 -16 -5 -23 -12z m38 -19 c0 -5 -10 -9 -21 -9 -18 0 -19 2 -9 15 12 15 30
12 30 -6z"/>
<path d="M5844 6518 c14 -20 14 -24 1 -45 -18 -27 -8 -31 11 -5 12 16 14 16
28 -3 8 -11 16 -15 16 -9 0 5 -6 16 -12 22 -10 10 -10 17 0 32 18 29 15 36 -7
16 -16 -15 -19 -15 -24 -1 -4 8 -11 15 -17 15 -7 0 -5 -9 4 -22z"/>
<path d="M5920 6475 c0 -37 4 -65 10 -65 6 0 10 9 10 20 0 13 7 20 20 20 12 0
25 10 31 24 16 35 -3 66 -41 66 l-30 0 0 -65z m58 25 c4 -23 -15 -43 -30 -34
-10 6 -11 48 -1 58 12 12 28 0 31 -24z"/>
<path d="M6022 6490 c1 -41 2 -42 5 -9 3 25 11 40 26 47 21 10 21 11 -5 9 -26
-1 -28 -4 -26 -47z"/>
<path d="M3524 6065 c1 -30 20 -27 24 3 2 14 -2 22 -11 22 -10 0 -14 -9 -13
-25z"/>
<path d="M1747 5370 c9 -34 20 -59 26 -57 6 2 16 21 22 43 l12 39 12 -42 c6
-24 15 -43 20 -43 4 0 13 19 20 43 7 23 15 50 17 60 3 9 1 17 -4 17 -6 0 -13
-18 -17 -40 -8 -49 -22 -52 -31 -5 -8 45 -24 41 -39 -11 l-12 -39 -7 30 c-15
58 -17 65 -26 65 -4 0 -1 -27 7 -60z"/>
<path d="M1903 5370 c0 -36 2 -50 4 -32 2 17 2 47 0 65 -2 17 -4 3 -4 -33z"/>
<path d="M1940 5370 c0 -68 17 -82 22 -18 l3 42 28 -42 c15 -23 32 -42 37 -42
6 0 10 27 10 60 0 33 -4 60 -10 60 -5 0 -10 -21 -10 -47 l0 -48 -31 48 c-17
26 -35 47 -40 47 -5 0 -9 -27 -9 -60z"/>
<path d="M2060 5370 l0 -61 37 3 c29 2 41 9 53 31 13 24 13 30 0 55 -12 21
-24 28 -53 30 l-37 3 0 -61z m61 40 c39 -21 16 -90 -30 -90 -6 0 -11 21 -11
50 0 52 7 58 41 40z"/>
<path d="M2196 5414 c-33 -33 -10 -104 33 -104 31 0 54 25 54 60 0 52 -53 79
-87 44z m69 -24 c11 -35 -3 -60 -35 -60 -32 0 -46 25 -35 60 4 14 15 20 35 20
20 0 31 -6 35 -20z"/>
<path d="M2300 5422 c0 -23 32 -112 40 -112 5 0 12 16 16 35 9 50 21 52 29 5
4 -24 12 -39 18 -37 14 4 39 85 34 107 -5 17 -8 10 -24 -50 l-10 -35 -12 43
c-14 51 -28 54 -37 7 -9 -52 -22 -52 -29 0 -4 25 -11 45 -16 45 -5 0 -9 -4 -9
-8z"/>
<path d="M3350 5420 c0 -13 -7 -20 -18 -20 -24 0 -42 -19 -42 -46 0 -27 19
-44 48 -41 20 1 22 6 22 64 0 35 -2 63 -5 63 -3 0 -5 -9 -5 -20z m-5 -66 c0
-19 -5 -29 -15 -29 -16 0 -25 28 -16 51 10 25 31 10 31 -22z"/>
<path d="M3160 5419 c0 -5 5 -7 10 -4 6 3 10 8 10 11 0 2 -4 4 -10 4 -5 0 -10
-5 -10 -11z"/>
<path d="M3034 5383 c3 -10 8 -30 12 -45 8 -37 22 -35 32 5 l8 32 12 -34 c15
-42 28 -32 36 24 l6 40 -14 -35 -14 -35 -7 33 c-4 17 -11 32 -16 32 -5 0 -13
-15 -18 -32 l-9 -33 -7 33 c-4 17 -12 32 -17 32 -5 0 -7 -8 -4 -17z"/>
<path d="M3160 5355 c0 -25 5 -45 10 -45 6 0 10 20 10 45 0 25 -4 45 -10 45
-5 0 -10 -20 -10 -45z"/>
<path d="M3200 5354 c0 -54 18 -59 22 -6 4 52 31 50 39 -3 l7 -40 -2 45 c-1
43 -2 45 -33 47 -33 1 -33 1 -33 -43z"/>
<path d="M3403 5393 c-21 -8 -16 -71 6 -78 32 -10 51 5 51 40 0 38 -22 53 -57
38z m41 -51 c-13 -20 -25 -20 -38 1 -7 10 -5 21 4 32 12 15 15 15 29 0 12 -12
13 -19 5 -33z"/>
<path d="M3485 5363 c12 -64 28 -72 40 -20 l7 32 9 -32 c12 -40 25 -42 33 -5
4 15 9 35 12 45 3 9 1 17 -5 17 -6 0 -11 -11 -11 -24 0 -36 -17 -40 -24 -6 -7
39 -22 38 -31 -2 l-7 -33 -9 33 c-13 44 -23 41 -14 -5z"/>
<path d="M3671 5350 l2 -45 6 40 c4 27 12 41 24 43 14 3 17 -4 17 -37 0 -23 5
-41 10 -41 15 0 12 66 -3 78 -7 6 -23 10 -35 9 -19 -1 -22 -7 -21 -47z"/>
<path d="M3765 5390 c-4 -6 3 -9 16 -7 29 3 36 -21 7 -25 -15 -2 -23 -10 -23
-23 0 -16 7 -20 32 -22 31 -1 32 0 27 30 -3 18 -7 38 -10 45 -4 14 -40 16 -49
2z m45 -49 c0 -14 -18 -23 -30 -16 -6 4 -8 11 -5 16 8 12 35 12 35 0z"/>
<path d="M3851 5351 l2 -46 6 40 c4 26 11 40 21 40 10 0 17 -14 21 -40 l5 -40
5 40 c5 54 33 56 37 3 4 -44 22 -52 22 -10 0 45 -14 57 -70 58 l-50 1 1 -46z"/>
<path d="M4003 5393 c-19 -7 -16 -70 3 -77 24 -9 44 -7 44 5 0 5 -4 8 -9 5
-12 -8 -41 3 -41 15 0 5 14 9 30 9 33 0 35 3 20 31 -11 19 -23 22 -47 12z m37
-24 c0 -5 -9 -9 -20 -9 -22 0 -27 16 -7 23 15 5 27 -1 27 -14z"/>
<path d="M3613 5353 c9 -2 23 -2 30 0 6 3 -1 5 -18 5 -16 0 -22 -2 -12 -5z"/>
<path d="M4526 5422 c-14 -24 -43 -112 -36 -112 5 0 12 9 15 20 4 13 15 20 32
20 16 0 27 -7 30 -20 3 -11 10 -20 15 -20 6 0 7 8 3 18 -4 9 -14 36 -22 60
-14 40 -26 51 -37 34z m18 -60 c-22 -5 -27 3 -19 29 l7 22 14 -24 c11 -20 10
-25 -2 -27z"/>
<path d="M4611 5416 c-17 -20 -5 -40 31 -54 26 -10 29 -14 18 -27 -8 -10 -21
-13 -38 -8 -17 4 -23 2 -18 -6 8 -13 45 -14 64 -2 21 13 10 44 -21 59 -43 21
-34 38 17 32 11 -1 15 3 12 9 -10 15 -51 14 -65 -3z"/>
<path d="M5430 5420 c0 -13 -7 -20 -18 -20 -24 0 -42 -19 -42 -46 0 -27 19
-44 48 -41 20 1 22 6 22 64 0 35 -2 63 -5 63 -3 0 -5 -9 -5 -20z m-2 -60 c4
-27 -17 -44 -35 -28 -16 13 -17 30 -1 46 17 17 32 10 36 -18z"/>
<path d="M5800 5420 c0 -13 -7 -20 -18 -20 -24 0 -42 -19 -42 -46 0 -27 19
-44 48 -41 20 1 22 6 22 64 0 35 -2 63 -5 63 -3 0 -5 -9 -5 -20z m-2 -60 c4
-27 -17 -44 -35 -28 -16 13 -17 30 -1 46 17 17 32 10 36 -18z"/>
<path d="M5933 5423 c-4 -10 -11 -21 -17 -25 -7 -5 -7 -8 2 -8 7 0 13 -16 14
-42 l1 -43 4 38 c3 23 11 41 20 44 15 6 14 7 -1 13 -17 6 -17 7 -2 23 16 15
16 17 1 17 -8 0 -19 -8 -22 -17z"/>
<path d="M5115 5363 c12 -64 28 -72 40 -20 l7 32 9 -32 c12 -40 25 -42 33 -5
4 15 9 35 12 45 3 9 1 17 -5 17 -6 0 -11 -11 -11 -24 0 -36 -17 -40 -24 -6 -7
39 -22 38 -31 -2 l-7 -33 -9 33 c-13 44 -23 41 -14 -5z"/>
<path d="M5243 5355 c0 -27 2 -38 4 -22 2 15 2 37 0 50 -2 12 -4 0 -4 -28z"/>
<path d="M5281 5350 l2 -45 6 40 c4 27 12 41 24 43 14 3 17 -4 17 -37 0 -23 5
-41 10 -41 15 0 12 66 -3 78 -7 6 -23 10 -35 9 -19 -1 -22 -7 -21 -47z"/>
<path d="M5469 5379 c-8 -16 -8 -28 0 -45 18 -41 71 -25 71 21 0 44 -50 61
-71 24z m55 -12 c8 -12 7 -21 -6 -33 -20 -20 -38 -11 -38 20 0 39 23 46 44 13z"/>
<path d="M5554 5383 c3 -10 8 -30 12 -45 8 -37 22 -35 32 5 l8 32 12 -34 c15
-42 28 -32 36 24 l6 40 -14 -35 -14 -35 -7 33 c-4 17 -11 32 -16 32 -5 0 -13
-15 -18 -32 l-9 -33 -7 33 c-4 17 -12 32 -17 32 -5 0 -7 -8 -4 -17z"/>
<path d="M5840 5379 c-17 -31 2 -69 35 -69 14 0 25 4 25 8 0 5 -10 8 -21 8
-12 -1 -24 5 -26 12 -3 7 5 12 22 12 22 0 26 4 23 23 -4 31 -43 35 -58 6z m48
-7 c2 -7 -6 -12 -17 -12 -21 0 -27 11 -14 24 9 9 26 2 31 -12z"/>
<path d="M5980 5354 c0 -54 18 -59 22 -6 4 52 31 50 39 -3 l7 -40 -2 45 c-1
43 -2 45 -33 47 -33 1 -33 1 -33 -43z"/>
<path d="M5688 5353 c6 -2 18 -2 25 0 6 3 1 5 -13 5 -14 0 -19 -2 -12 -5z"/>
<path d="M4534 4935 c1 -28 11 -33 20 -9 9 24 7 34 -8 34 -9 0 -13 -10 -12
-25z"/>
<path d="M3434 4175 c1 -30 20 -27 24 3 2 14 -2 22 -11 22 -10 0 -14 -9 -13
-25z"/>
<path d="M1484 3863 c12 -31 26 -58 32 -60 5 -2 20 24 32 57 11 33 17 60 12
60 -4 0 -14 -17 -20 -37 -19 -57 -26 -59 -45 -9 -10 25 -21 46 -26 46 -4 0 3
-26 15 -57z"/>
<path d="M1606 3912 c-14 -24 -43 -112 -36 -112 5 0 12 9 15 20 4 13 15 20 32
20 16 0 27 -7 30 -20 3 -11 10 -20 15 -20 6 0 7 8 3 18 -4 9 -14 36 -22 60
-14 40 -26 51 -37 34z m18 -60 c-22 -5 -27 3 -19 29 l7 22 14 -24 c11 -20 10
-25 -2 -27z"/>
<path d="M1690 3860 l0 -60 38 1 c30 2 32 3 10 6 -27 4 -28 7 -28 59 0 30 -4
54 -10 54 -6 0 -10 -27 -10 -60z"/>
<path d="M1782 3875 c-1 -29 3 -56 10 -63 18 -18 56 -14 68 7 13 25 13 101 0
101 -5 0 -10 -22 -10 -49 0 -83 -56 -75 -63 9 l-4 45 -1 -50z"/>
<path d="M1900 3860 l0 -60 38 1 c36 1 36 2 7 8 -38 8 -42 42 -5 52 25 7 25 7
-3 8 -39 1 -33 34 8 42 29 6 29 7 -7 8 l-38 1 0 -60z"/>
<path d="M2003 3913 c-25 -9 -14 -44 17 -56 17 -6 30 -17 30 -23 0 -16 -26
-25 -47 -17 -11 4 -14 3 -9 -5 9 -16 49 -15 64 0 21 21 13 39 -24 54 -30 12
-34 17 -23 30 7 9 20 12 32 8 13 -4 17 -2 13 5 -7 11 -31 13 -53 4z"/>
<path d="M2680 3911 c-13 -25 -13 -82 0 -115 12 -33 35 -36 23 -3 -10 28 -10
86 0 115 10 28 -8 30 -23 3z"/>
<path d="M3302 3878 c-15 -15 -16 -50 0 -66 14 -14 44 -16 52 -4 3 5 -4 8 -16
8 -12 -1 -23 5 -25 12 -3 7 5 12 22 12 22 0 26 4 23 23 -3 25 -36 35 -56 15z
m46 -16 c2 -7 -6 -12 -17 -12 -21 0 -27 11 -14 24 9 9 26 2 31 -12z"/>
<path d="M3380 3884 c0 -6 5 -15 11 -21 9 -9 8 -18 -5 -37 -9 -15 -12 -26 -7
-26 6 0 15 8 21 18 10 16 10 16 20 0 6 -10 16 -18 21 -18 6 0 3 10 -5 22 -11
16 -12 26 -5 40 6 11 8 22 5 25 -3 3 -8 -2 -12 -11 -6 -16 -8 -16 -25 0 -11 9
-19 13 -19 8z"/>
<path d="M3471 3820 c1 -36 4 -55 6 -42 3 12 12 22 22 22 23 0 41 20 41 46 0
27 -19 44 -48 41 -20 -1 -22 -6 -21 -67z m44 24 c0 -19 -5 -29 -15 -29 -16 0
-25 28 -16 51 10 25 31 10 31 -22z"/>
<path d="M3560 3843 c0 -24 5 -43 10 -43 6 0 10 16 10 35 0 22 6 38 18 44 14
9 13 10 -10 9 -26 -2 -28 -6 -28 -45z"/>
<path d="M4191 3908 c7 -13 9 -43 5 -81 -5 -50 -4 -58 8 -48 32 27 24 151 -10
151 -12 0 -13 -4 -3 -22z"/>
<path d="M3434 3415 c1 -30 20 -27 24 3 2 14 -2 22 -11 22 -10 0 -14 -9 -13
-25z"/>
<path d="M3460 3000 c0 -13 -7 -20 -18 -20 -24 0 -42 -19 -42 -46 0 -27 19
-44 48 -41 20 1 22 6 22 64 0 35 -2 63 -5 63 -3 0 -5 -9 -5 -20z m-5 -66 c0
-19 -5 -29 -15 -29 -16 0 -25 28 -16 51 10 25 31 10 31 -22z"/>
<path d="M3993 2996 c-6 -10 -9 -26 -7 -35 12 -62 16 -71 31 -71 13 0 14 3 5
12 -16 16 -15 68 1 68 8 0 9 3 1 8 -6 4 -13 14 -16 22 -4 12 -6 11 -15 -4z"/>
<path d="M2722 2968 c-27 -27 -7 -78 30 -78 10 0 18 4 18 10 0 5 -6 7 -13 4
-8 -3 -20 2 -27 11 -17 20 -1 51 24 49 9 -1 16 2 16 7 0 13 -34 11 -48 -3z"/>
<path d="M2803 2973 c-21 -8 -16 -71 6 -78 32 -10 51 5 51 40 0 38 -22 53 -57
38z m41 -51 c-13 -20 -25 -20 -38 1 -7 10 -5 21 4 32 12 15 15 15 29 0 12 -12
13 -19 5 -33z"/>
<path d="M2891 2931 l2 -46 6 40 c4 26 11 40 21 40 10 0 17 -14 21 -40 l5 -40
5 40 c3 27 9 40 19 40 10 0 17 -14 21 -40 l7 -40 -2 45 -1 45 -52 1 -53 1 1
-46z"/>
<path d="M3031 2911 c1 -36 4 -56 6 -43 3 12 12 22 22 22 25 0 41 20 41 52 0
30 0 30 -42 33 l-28 2 1 -66z m54 38 c8 -24 -16 -55 -34 -45 -12 8 -15 49 -4
59 13 14 32 7 38 -14z"/>
<path d="M3132 2968 c-7 -7 -12 -21 -12 -33 0 -46 53 -62 71 -21 21 45 -26 87
-59 54z m46 -37 c-3 -29 -25 -34 -41 -9 -8 12 -7 21 2 32 19 22 43 8 39 -23z"/>
<path d="M3224 2940 c1 -43 2 -45 34 -47 32 -1 32 -1 32 43 0 54 -18 59 -22 7
-4 -53 -31 -51 -39 2 l-7 40 2 -45z"/>
<path d="M3310 2934 c0 -54 18 -59 22 -6 4 52 31 50 39 -3 l7 -40 -2 45 c-1
43 -2 45 -33 47 -33 1 -33 1 -33 -43z"/>
<path d="M3572 2968 c-7 -7 -12 -21 -12 -33 0 -46 53 -62 71 -21 21 45 -26 87
-59 54z m46 -37 c-3 -29 -25 -34 -41 -9 -8 12 -7 21 2 32 19 22 43 8 39 -23z"/>
<path d="M3661 2911 c1 -36 4 -56 6 -43 3 12 12 22 22 22 25 0 41 20 41 52 0
30 0 30 -42 33 l-28 2 1 -66z m54 38 c8 -24 -16 -55 -34 -45 -12 8 -15 49 -4
59 13 14 32 7 38 -14z"/>
<path d="M3762 2968 c-27 -27 -7 -78 29 -78 10 0 21 5 25 11 4 7 0 9 -13 5
-12 -4 -25 -1 -33 9 -11 13 -8 15 19 15 19 0 31 5 31 13 0 16 -20 37 -35 37
-6 0 -16 -5 -23 -12z m38 -19 c0 -5 -10 -9 -21 -9 -18 0 -19 2 -9 15 12 15 30
12 30 -6z"/>
<path d="M3840 2933 c0 -24 5 -43 10 -43 6 0 10 16 10 35 0 22 6 38 18 44 14
9 13 10 -10 9 -26 -2 -28 -6 -28 -45z"/>
<path d="M3904 2969 c-5 -9 -2 -10 9 -6 8 3 21 -1 27 -9 10 -11 9 -14 -8 -14
-24 0 -44 -21 -34 -37 4 -7 21 -11 38 -11 29 1 30 2 24 42 -4 32 -10 42 -27
44 -11 2 -25 -2 -29 -9z m41 -49 c3 -6 -1 -13 -10 -16 -19 -8 -30 0 -20 15 8
14 22 14 30 1z"/>
<path d="M4049 2959 c-8 -16 -8 -28 0 -45 18 -41 71 -25 71 21 0 44 -50 61
-71 24z m55 -12 c8 -12 7 -21 -6 -33 -20 -20 -38 -11 -38 20 0 39 23 46 44 13z"/>
<path d="M4140 2934 c0 -24 5 -44 10 -44 6 0 10 16 10 35 0 21 6 37 17 43 13
8 11 10 -10 10 -25 0 -27 -4 -27 -44z"/>
<path d="M3508 2933 c6 -2 18 -2 25 0 6 3 1 5 -13 5 -14 0 -19 -2 -12 -5z"/>
<path d="M1737 2242 c-23 -25 -22 -65 2 -86 26 -24 62 -17 81 17 13 24 13 30
0 55 -19 33 -59 41 -83 14z m73 -42 c0 -18 -7 -33 -18 -39 -26 -14 -52 5 -52
39 0 34 26 53 52 39 11 -6 18 -21 18 -39z"/>
<path d="M1850 2200 c0 -33 4 -60 10 -60 6 0 10 11 10 25 0 14 4 25 10 25 5 0
17 -11 26 -25 9 -14 21 -25 26 -25 6 0 3 11 -6 24 -10 15 -12 27 -6 31 16 10
12 52 -6 59 -9 3 -27 6 -40 6 -23 0 -24 -3 -24 -60z m60 35 c15 -18 5 -35 -21
-35 -14 0 -19 7 -19 25 0 28 21 33 40 10z"/>
<path d="M1960 2200 c0 -60 0 -60 29 -60 37 0 61 23 61 60 0 37 -24 60 -61 60
-29 0 -29 0 -29 -60z m72 26 c14 -21 8 -46 -17 -62 -13 -8 -29 -13 -35 -9 -11
7 -14 78 -3 88 9 9 46 -2 55 -17z"/>
<path d="M2080 2200 l0 -60 38 1 c36 1 36 2 7 8 -38 8 -42 42 -5 52 25 7 25 7
-3 8 -39 1 -33 34 8 42 29 6 29 7 -7 8 l-38 1 0 -60z"/>
<path d="M2170 2200 c0 -33 4 -60 10 -60 6 0 10 11 10 25 0 14 6 25 13 25 8 0
20 -11 27 -25 17 -32 33 -33 18 0 -8 18 -8 28 1 39 21 25 -3 56 -44 56 l-35 0
0 -60z m59 41 c19 -12 6 -41 -19 -41 -15 0 -20 7 -20 25 0 26 14 31 39 16z"/>
<path d="M2680 2200 c0 -57 1 -60 24 -60 13 0 31 3 40 6 18 7 22 54 6 54 -7 0
-7 6 -1 18 13 25 -4 42 -41 42 -28 0 -28 -1 -28 -60z m55 30 c0 -8 -10 -16
-22 -18 -22 -3 -32 16 -16 32 12 11 38 2 38 -14z m4 -44 c9 -10 8 -16 -4 -26
-20 -16 -45 -6 -45 20 0 23 31 28 49 6z"/>
<path d="M2770 2255 c0 -2 9 -19 20 -37 11 -18 20 -44 21 -58 1 -23 2 -22 8 5
4 17 16 43 26 58 10 15 15 30 12 34 -4 3 -12 -6 -18 -21 -15 -33 -26 -33 -41
-1 -10 21 -28 35 -28 20z"/>
<path d="M3730 2251 c0 -12 -9 -21 -26 -25 -22 -6 -25 -11 -22 -44 3 -34 5
-37 36 -38 l32 -1 0 64 c0 35 -4 63 -10 63 -5 0 -10 -9 -10 -19z m0 -59 c0
-34 -7 -43 -26 -35 -17 6 -18 35 -2 51 19 19 28 14 28 -16z"/>
<path d="M4223 2246 c-6 -10 -9 -26 -7 -35 12 -62 16 -71 31 -71 13 0 14 3 5
12 -16 16 -15 68 1 68 8 0 9 3 1 8 -6 4 -13 14 -16 22 -4 12 -6 11 -15 -4z"/>
<path d="M3530 2216 c-28 -35 11 -93 48 -70 35 22 22 84 -18 84 -10 0 -23 -7
-30 -14z m45 -32 c0 -19 -5 -29 -15 -29 -16 0 -25 28 -16 51 10 25 31 10 31
-22z"/>
<path d="M3620 2183 c0 -24 5 -43 10 -43 6 0 10 16 10 35 0 22 6 38 18 44 14
9 13 10 -10 9 -26 -2 -28 -6 -28 -45z"/>
<path d="M3782 2218 c-15 -15 -16 -50 0 -66 14 -14 44 -16 52 -4 3 5 -4 8 -16
8 -12 -1 -23 5 -25 12 -3 7 5 12 22 12 22 0 26 4 23 23 -3 25 -36 35 -56 15z
m46 -16 c2 -7 -6 -12 -17 -12 -21 0 -27 11 -14 24 9 9 26 2 31 -12z"/>
<path d="M3860 2184 c0 -24 5 -44 10 -44 6 0 10 16 10 35 0 21 6 37 17 43 13
8 11 10 -10 10 -25 0 -27 -4 -27 -44z"/>
<path d="M3933 2185 c0 -27 2 -38 4 -22 2 15 2 37 0 50 -2 12 -4 0 -4 -28z"/>
<path d="M3971 2180 l2 -45 6 40 c4 27 12 41 24 43 14 3 17 -4 17 -37 0 -23 5
-41 10 -41 15 0 12 66 -3 78 -7 6 -23 10 -35 9 -19 -1 -22 -7 -21 -47z"/>
<path d="M4071 2216 c-20 -24 -10 -70 17 -74 29 -4 22 -28 -7 -25 -13 2 -20
-1 -16 -7 9 -15 41 -12 54 4 7 8 11 36 9 63 -2 40 -7 49 -24 51 -11 2 -26 -4
-33 -12z m39 -24 c0 -34 -7 -43 -26 -35 -17 6 -18 35 -2 51 19 19 28 14 28
-16z"/>
<path d="M4293 2223 c-19 -7 -16 -70 3 -77 24 -9 44 -7 44 5 0 5 -4 8 -9 5
-12 -8 -41 3 -41 15 0 5 14 9 30 9 33 0 35 3 20 31 -11 19 -23 22 -47 12z m37
-24 c0 -5 -9 -9 -20 -9 -22 0 -27 16 -7 23 15 5 27 -1 27 -14z"/>
<path d="M4372 2180 c1 -40 2 -41 5 -10 2 19 11 40 20 47 13 10 13 12 -6 10
-18 -1 -21 -7 -19 -47z"/>
<path d="M4430 2183 c0 -24 5 -43 10 -43 6 0 10 18 10 40 0 29 4 40 15 40 11
0 15 -11 15 -40 0 -50 18 -53 22 -3 4 52 28 56 28 4 0 -23 5 -41 10 -41 12 0
13 59 2 76 -4 7 -30 11 -59 11 l-53 -1 0 -43z"/>
<path d="M4163 2183 c9 -2 23 -2 30 0 6 3 -1 5 -18 5 -16 0 -22 -2 -12 -5z"/>
<path d="M4024 1755 c1 -30 20 -27 24 3 2 14 -2 22 -11 22 -10 0 -14 -9 -13
-25z"/>
<path d="M1740 1140 l0 -60 43 2 c36 1 38 2 10 5 -33 4 -33 5 -33 59 0 30 -4
54 -10 54 -6 0 -10 -27 -10 -60z"/>
<path d="M1830 1140 c0 -33 4 -60 10 -60 6 0 10 27 10 60 0 33 -4 60 -10 60
-6 0 -10 -27 -10 -60z"/>
<path d="M1882 1138 c1 -61 1 -61 7 -18 l6 45 18 -32 c10 -18 20 -33 22 -33 2
0 12 15 22 33 l18 32 6 -45 c6 -43 6 -43 7 18 1 34 -2 62 -6 62 -5 0 -17 -19
-28 -41 l-18 -41 -20 41 c-11 22 -24 41 -28 41 -4 0 -7 -28 -6 -62z"/>
<path d="M2020 1140 c0 -33 4 -60 10 -60 6 0 10 27 10 60 0 33 -4 60 -10 60
-6 0 -10 -27 -10 -60z"/>
<path d="M2068 1193 c20 -4 22 -10 22 -59 0 -30 5 -54 10 -54 6 0 10 24 10 54
0 49 2 55 23 59 12 2 -3 4 -33 4 -30 0 -45 -2 -32 -4z"/>
<path d="M2580 1149 c-17 -31 2 -69 35 -69 14 0 25 4 25 8 0 5 -10 8 -21 8
-12 -1 -24 5 -26 12 -3 7 5 12 22 12 22 0 26 4 23 23 -4 31 -43 35 -58 6z m48
-7 c2 -7 -6 -12 -17 -12 -21 0 -27 11 -14 24 9 9 26 2 31 -12z"/>
<path d="M2660 1164 c0 -6 5 -15 11 -21 9 -9 8 -18 -5 -37 -9 -15 -12 -26 -7
-26 6 0 15 8 21 18 10 16 10 16 20 0 6 -10 16 -18 21 -18 6 0 3 10 -5 22 -11
16 -12 26 -5 40 6 11 8 22 5 25 -3 3 -8 -2 -12 -11 -6 -16 -8 -16 -25 0 -11 9
-19 13 -19 8z"/>
<path d="M2751 1100 c1 -36 4 -55 6 -42 3 12 12 22 22 22 23 0 41 20 41 46 0
27 -19 44 -48 41 -20 -1 -22 -6 -21 -67z m44 24 c0 -19 -5 -29 -15 -29 -16 0
-25 28 -16 51 10 25 31 10 31 -22z"/>
<path d="M2840 1123 c0 -24 5 -43 10 -43 6 0 10 16 10 35 0 22 6 38 18 44 14
9 13 10 -10 9 -26 -2 -28 -6 -28 -45z"/>
<path d="M3705 886 c-40 -29 -14 -106 36 -106 26 0 49 28 49 60 0 51 -45 76
-85 46z m70 -27 c9 -28 -3 -56 -26 -62 -23 -6 -49 17 -49 43 0 45 62 61 75 19z"/>
<path d="M3821 838 c1 -45 3 -54 8 -33 4 20 14 31 31 36 25 7 25 7 -3 8 -39 1
-33 34 8 42 29 6 29 7 -7 8 l-38 1 1 -62z"/>
<path d="M3911 838 c1 -45 3 -54 8 -33 4 20 14 31 31 36 25 7 25 7 -3 8 -39 1
-33 34 8 42 29 6 29 7 -7 8 l-38 1 1 -62z"/>
<path d="M4001 886 c-17 -20 -5 -40 31 -54 26 -10 29 -14 18 -27 -8 -10 -21
-13 -38 -8 -17 4 -23 2 -18 -6 8 -13 45 -14 64 -2 21 13 10 44 -21 59 -43 21
-34 38 17 32 11 -1 15 3 12 9 -10 15 -51 14 -65 -3z"/>
<path d="M4090 840 l0 -60 43 1 c38 1 39 2 12 8 -42 9 -48 48 -8 54 l28 4 -28
2 c-39 2 -33 34 8 42 27 6 26 7 -12 8 l-43 1 0 -60z"/>
<path d="M4198 893 c20 -4 22 -10 22 -59 0 -30 5 -54 10 -54 6 0 10 24 10 54
0 49 2 55 23 59 12 2 -3 4 -33 4 -30 0 -45 -2 -32 -4z"/>
<path d="M4712 858 c-15 -15 -16 -50 0 -66 14 -14 44 -16 52 -4 3 5 -4 8 -16
8 -12 -1 -23 5 -25 12 -3 7 5 12 22 12 22 0 26 4 23 23 -3 25 -36 35 -56 15z
m46 -16 c2 -7 -6 -12 -17 -12 -21 0 -27 11 -14 24 9 9 26 2 31 -12z"/>
<path d="M4790 864 c0 -6 5 -15 11 -21 9 -9 8 -18 -5 -37 -9 -15 -12 -26 -7
-26 6 0 15 8 21 18 10 16 10 16 20 0 6 -10 16 -18 21 -18 6 0 3 10 -5 22 -11
16 -12 26 -5 40 6 11 8 22 5 25 -3 3 -8 -2 -12 -11 -6 -16 -8 -16 -25 0 -11 9
-19 13 -19 8z"/>
<path d="M4870 805 c0 -37 4 -65 10 -65 6 0 10 9 10 20 0 13 7 20 20 20 12 0
25 10 31 24 16 35 -3 66 -41 66 l-30 0 0 -65z m58 25 c4 -23 -15 -43 -30 -34
-10 6 -11 48 -1 58 12 12 28 0 31 -24z"/>
<path d="M4972 820 c1 -41 2 -42 5 -9 3 25 11 40 26 47 21 10 21 11 -5 9 -26
-1 -28 -4 -26 -47z"/>
<path d="M3704 395 c1 -30 20 -27 24 3 2 14 -2 22 -11 22 -10 0 -14 -9 -13
-25z"/>
<path d="M4202 478 c-15 -15 -16 -50 0 -66 14 -14 44 -16 52 -4 3 5 -4 8 -16
8 -12 -1 -23 5 -25 12 -3 7 5 12 22 12 22 0 26 4 23 23 -3 25 -36 35 -56 15z
m46 -16 c2 -7 -6 -12 -17 -12 -21 0 -27 11 -14 24 9 9 26 2 31 -12z"/>
<path d="M4280 484 c0 -6 5 -15 11 -21 9 -9 8 -18 -5 -37 -9 -15 -12 -26 -7
-26 6 0 15 8 21 18 10 16 10 16 20 0 6 -10 16 -18 21 -18 6 0 3 10 -5 22 -11
16 -12 26 -5 40 6 11 8 22 5 25 -3 3 -8 -2 -12 -11 -6 -16 -8 -16 -25 0 -11 9
-19 13 -19 8z"/>
<path d="M4360 425 c0 -37 4 -65 10 -65 6 0 10 9 10 20 0 13 7 20 20 20 12 0
25 10 31 24 16 35 -3 66 -41 66 l-30 0 0 -65z m58 25 c4 -23 -15 -43 -30 -34
-10 6 -11 48 -1 58 12 12 28 0 31 -24z"/>
<path d="M4462 440 c1 -41 2 -42 5 -9 3 25 11 40 26 47 21 10 21 11 -5 9 -26
-1 -28 -4 -26 -47z"/>
</g>
</svg>
