<?xml version="1.0" standalone="no"?>
<!DOCTYPE svg PUBLIC "-//W3C//DTD SVG 20010904//EN"
 "http://www.w3.org/TR/2001/REC-SVG-20010904/DTD/svg10.dtd">
<svg version="1.0" xmlns="http://www.w3.org/2000/svg"
 width="424.000000pt" height="179.000000pt" viewBox="0 0 424.000000 179.000000"
 preserveAspectRatio="xMidYMid meet">
<metadata>
Created by potrace 1.16, written by Peter Selinger 2001-2019
</metadata>
<g transform="translate(0.000000,179.000000) scale(0.100000,-0.100000)"
fill="#000000" stroke="none">
<path d="M560 1615 l0 -75 -50 20 c-62 24 -68 25 -66 3 1 -16 -11 -18 -111
-21 -102 -2 -114 -1 -133 18 -11 11 -25 20 -30 20 -13 0 -50 -37 -50 -50 0
-13 37 -50 50 -50 5 0 19 9 30 20 30 30 90 27 121 -6 l24 -26 5 -577 c5 -534
6 -579 23 -604 21 -32 54 -47 104 -47 30 0 35 -3 30 -20 -6 -25 0 -25 54 -1
l44 20 15 -41 c8 -23 31 -54 53 -72 l39 -31 411 -3 c227 -2 427 0 445 3 45 8
99 59 113 106 12 39 13 39 62 39 44 0 49 -2 44 -20 -6 -25 6 -25 62 0 24 11
45 19 46 18 1 -2 8 -21 16 -42 8 -21 31 -53 52 -70 34 -27 47 -31 97 -31 50 0
64 4 97 31 23 19 44 47 53 72 14 41 15 42 62 42 41 0 48 -3 48 -20 0 -25 7
-25 61 -1 l44 20 15 -41 c8 -23 31 -54 53 -72 34 -27 47 -31 97 -31 50 0 64 4
97 31 23 19 44 47 53 72 l14 42 353 0 c346 0 353 0 353 -20 0 -25 13 -25 69 0
26 12 65 20 98 20 69 0 87 10 107 60 14 36 16 106 16 586 0 580 1 598 48 623
31 17 82 14 82 -4 0 -19 14 -19 66 1 40 15 43 15 63 -5 26 -26 36 -26 61 -1
25 25 25 35 0 60 -25 25 -32 25 -61 1 -23 -18 -24 -18 -67 0 -55 24 -62 24
-62 -1 0 -20 -7 -20 -679 -20 -657 0 -681 1 -726 20 -26 11 -51 20 -56 20 -5
0 -9 -9 -9 -20 0 -20 -7 -20 -670 -20 l-670 0 0 75 0 75 -255 0 -255 0 0 -75z
m490 -85 l0 -140 -235 0 -235 0 0 140 0 140 235 0 235 0 0 -140z m-860 0 c0
-13 -7 -20 -20 -20 -13 0 -20 7 -20 20 0 13 7 20 20 20 13 0 20 -7 20 -20z
m3870 0 c0 -21 -33 -29 -45 -10 -9 15 4 30 26 30 12 0 19 -7 19 -20z m-3614
-25 c-3 -9 0 -15 8 -15 7 0 33 7 56 15 23 8 44 15 46 15 2 0 4 -34 4 -75 l0
-75 255 0 255 0 0 75 0 75 45 0 c77 0 79 -8 85 -321 5 -251 6 -269 26 -296 37
-50 77 -63 198 -63 92 0 107 -2 102 -15 -7 -19 10 -19 64 0 28 10 81 15 159
15 179 0 219 29 231 169 7 82 28 131 55 131 8 0 15 -7 15 -15 0 -8 6 -15 14
-15 7 0 33 7 56 15 23 8 44 15 45 15 2 0 6 -14 10 -30 9 -40 51 -89 92 -106
48 -20 958 -20 1006 0 41 17 83 66 92 106 6 28 10 30 51 30 32 0 44 -4 44 -15
0 -8 6 -15 14 -15 7 0 33 7 56 15 23 8 69 15 101 15 46 0 64 5 79 20 20 20 20
20 20 -202 0 -234 -7 -294 -36 -315 -26 -19 -113 -15 -163 7 -55 25 -71 25
-71 0 0 -20 -7 -20 -1260 -20 l-1260 0 0 24 c0 28 -35 82 -72 109 -33 25 -117
34 -158 17 -41 -17 -88 -72 -95 -114 l-7 -34 -41 19 c-51 23 -68 24 -61 4 16
-40 -84 -29 -113 13 -16 25 -18 59 -23 419 -4 295 -8 395 -17 405 -23 22 -14
28 43 28 46 0 55 -3 50 -15z m1964 0 c0 -8 6 -15 14 -15 7 0 30 7 49 15 31 13
129 15 667 15 l630 0 -16 -26 c-13 -19 -19 -60 -24 -153 -7 -129 -16 -164 -46
-175 -32 -12 -104 -6 -154 14 -63 25 -70 25 -70 0 0 -17 -7 -20 -44 -20 -41 0
-44 2 -50 32 -9 43 -52 97 -92 114 -48 20 -959 21 -1007 0 -43 -17 -85 -68
-93 -111 l-6 -34 -49 20 c-62 24 -69 24 -69 -1 0 -19 -7 -20 -109 -20 l-109 0
-6 35 c-9 46 -57 101 -103 116 -51 16 -147 7 -181 -18 -37 -27 -72 -81 -72
-109 l0 -24 -50 20 c-63 25 -69 25 -63 0 5 -17 0 -20 -34 -20 -79 0 -103 44
-103 195 -1 50 -7 107 -14 128 l-14 37 609 0 c535 0 609 -2 609 -15z m-669
-228 c94 -63 88 -199 -12 -249 -73 -38 -173 -14 -216 51 -42 63 -21 153 46
198 47 32 135 32 182 0z m1527 9 c52 -27 75 -62 79 -118 5 -62 -18 -106 -69
-138 -32 -19 -52 -20 -508 -20 -456 0 -476 1 -508 20 -51 32 -74 76 -69 137 4
56 20 83 72 114 28 18 60 19 503 19 387 0 478 -3 500 -14z m-1958 -144 c38 -3
50 -8 46 -18 -7 -18 11 -18 64 1 24 8 44 14 45 13 1 -2 8 -21 16 -42 8 -21 31
-53 52 -70 36 -29 44 -31 117 -31 72 0 81 2 117 31 23 19 44 47 53 72 l14 42
77 0 77 0 -14 -37 c-7 -21 -13 -60 -14 -88 0 -65 -26 -115 -70 -137 -46 -24
-237 -25 -300 -3 -23 8 -49 15 -56 15 -8 0 -11 -6 -8 -15 5 -13 -9 -15 -97
-15 -178 0 -209 31 -209 214 0 108 0 109 20 91 11 -10 42 -20 70 -23z m-459
-395 c94 -63 88 -199 -12 -249 -96 -50 -209 21 -209 132 0 107 132 177 221
117z m-391 -135 c38 -3 50 -8 46 -18 -7 -18 13 -18 57 1 20 8 38 15 40 15 2 0
9 -18 16 -39 6 -22 27 -53 46 -70 86 -75 227 -40 265 67 l14 42 1258 0 c1112
0 1258 -2 1258 -15 0 -19 16 -19 70 0 23 8 69 15 101 15 46 0 64 5 79 20 20
20 20 20 20 -122 0 -156 -10 -216 -36 -235 -24 -18 -112 -16 -164 2 -23 8 -49
15 -56 15 -8 0 -14 -7 -14 -15 0 -13 -46 -15 -354 -15 l-354 0 -7 30 c-8 37
-48 86 -86 105 -36 19 -102 19 -138 0 -38 -19 -81 -71 -88 -106 -3 -16 -7 -29
-8 -29 -1 0 -19 7 -38 15 -46 19 -67 19 -67 0 0 -11 -12 -15 -49 -15 -47 0
-50 2 -56 30 -8 37 -48 86 -86 105 -36 19 -102 19 -138 0 -38 -19 -81 -71 -88
-106 -3 -16 -7 -29 -8 -29 -1 0 -22 7 -45 15 -52 18 -71 19 -67 2 1 -8 -14
-13 -45 -15 -44 -3 -46 -2 -53 28 -9 40 -51 89 -92 106 -47 20 -839 20 -886 0
-41 -17 -83 -66 -92 -106 -4 -16 -8 -30 -10 -30 -1 0 -19 7 -38 15 -44 18 -68
19 -64 3 3 -18 -52 -21 -83 -5 -39 20 -49 67 -49 231 -1 148 -1 149 19 131 11
-10 42 -20 70 -23z m1138 -242 c94 -57 94 -183 0 -240 -32 -19 -52 -20 -443
-20 -370 0 -413 2 -445 18 -68 34 -99 117 -66 180 16 30 53 66 76 75 8 3 202
6 430 6 397 1 416 0 448 -19z m533 -3 c112 -74 75 -237 -58 -253 -48 -6 -100
20 -130 65 -79 118 70 267 188 188z m530 0 c45 -30 71 -82 65 -130 -16 -133
-179 -170 -253 -58 -79 118 70 267 188 188z"/>
<path d="M660 1559 c-17 -31 2 -69 35 -69 14 0 25 4 25 8 0 5 -10 8 -21 8 -12
-1 -24 5 -26 12 -3 7 5 12 22 12 22 0 26 4 23 23 -4 31 -43 35 -58 6z m48 -7
c2 -7 -6 -12 -17 -12 -21 0 -27 11 -14 24 9 9 26 2 31 -12z"/>
<path d="M752 1555 c9 -19 9 -28 0 -37 -20 -20 -13 -32 8 -13 18 16 20 16 26
1 3 -9 11 -16 16 -16 6 0 3 11 -5 24 -14 21 -14 26 -1 45 8 11 11 21 5 21 -5
0 -14 -8 -20 -17 -9 -17 -10 -17 -16 0 -4 9 -11 17 -16 17 -5 0 -3 -11 3 -25z"/>
<path d="M831 1511 c1 -36 4 -56 6 -43 3 12 12 22 22 22 25 0 41 20 41 52 0
30 0 30 -42 33 l-28 2 1 -66z m54 38 c8 -24 -16 -55 -34 -45 -12 8 -15 49 -4
59 13 14 32 7 38 -14z"/>
<path d="M920 1534 c0 -24 5 -44 10 -44 6 0 10 16 10 35 0 21 6 37 17 43 13 8
11 10 -10 10 -25 0 -27 -4 -27 -44z"/>
<path d="M1571 1174 c-21 -57 -22 -84 -1 -45 15 28 54 27 69 -1 11 -23 11 -23
6 3 -7 38 -34 99 -44 99 -4 0 -18 -25 -30 -56z m45 -11 c-2 -3 -11 -3 -19 -1
-11 2 -12 9 -5 28 l10 25 9 -24 c5 -13 7 -26 5 -28z"/>
<path d="M1683 1223 c-25 -9 -14 -44 17 -54 17 -6 30 -17 30 -24 0 -16 -25
-26 -47 -18 -11 4 -14 3 -9 -5 9 -16 49 -15 64 0 21 21 13 39 -24 54 -30 12
-34 17 -23 30 7 9 20 12 32 8 13 -4 17 -2 13 5 -7 11 -31 13 -53 4z"/>
<path d="M2482 1178 c2 -34 8 -63 13 -65 6 -2 9 22 7 62 -2 36 -8 65 -13 65
-6 0 -9 -27 -7 -62z"/>
<path d="M3012 1178 c-2 -57 1 -68 14 -68 12 0 14 3 6 13 -6 7 -12 37 -15 67
-3 54 -3 54 -5 -12z"/>
<path d="M2309 1179 c-8 -16 -8 -28 0 -45 11 -25 45 -32 57 -12 4 6 3 8 -4 5
-18 -12 -42 4 -42 28 0 24 24 40 42 28 7 -3 8 -1 4 5 -12 19 -44 14 -57 -9z"/>
<path d="M2389 1179 c-8 -16 -8 -28 0 -45 18 -41 71 -25 71 21 0 44 -50 61
-71 24z m55 -12 c8 -12 7 -21 -6 -33 -20 -20 -38 -11 -38 20 0 39 23 46 44 13z"/>
<path d="M2534 1160 c1 -43 2 -45 34 -47 32 -1 32 -1 32 43 0 54 -18 59 -22 7
-4 -53 -31 -51 -39 2 l-7 40 2 -45z"/>
<path d="M2620 1155 c0 -54 17 -61 22 -8 4 52 28 56 28 4 0 -23 5 -41 10 -41
6 0 10 15 10 34 0 33 14 55 27 42 3 -3 10 -23 14 -43 l7 -38 -1 45 -2 45 -57
3 -58 2 0 -45z"/>
<path d="M2771 1151 l2 -46 6 40 c4 26 11 40 21 40 10 0 17 -14 21 -40 l7 -40
-2 45 c-1 42 -3 45 -28 46 -27 1 -28 -1 -27 -45z"/>
<path d="M2924 1189 c-5 -9 -2 -10 9 -6 8 3 21 -1 27 -9 10 -11 9 -14 -8 -14
-24 0 -44 -21 -34 -37 4 -7 21 -11 38 -11 29 1 30 2 24 42 -4 32 -10 42 -27
44 -11 2 -25 -2 -29 -9z m41 -49 c3 -6 -1 -13 -10 -16 -19 -8 -30 0 -20 15 8
14 22 14 30 1z"/>
<path d="M3063 1155 c0 -27 2 -38 4 -22 2 15 2 37 0 50 -2 12 -4 0 -4 -28z"/>
<path d="M3100 1191 c0 -5 7 -8 16 -7 26 2 28 -22 2 -26 -15 -2 -23 -10 -23
-23 0 -16 7 -20 36 -21 34 -1 35 0 31 30 -3 17 -9 37 -14 44 -12 14 -48 17
-48 3z m40 -50 c0 -14 -18 -23 -30 -16 -6 4 -8 11 -5 16 8 12 35 12 35 0z"/>
<path d="M3184 1185 c-7 -18 3 -35 22 -35 9 0 14 -6 11 -12 -2 -7 -12 -12 -21
-12 -9 1 -16 -2 -16 -7 0 -13 34 -11 48 3 18 18 15 27 -14 38 -14 6 -22 15
-19 21 4 6 13 8 21 5 8 -3 14 -1 14 4 0 16 -40 12 -46 -5z"/>
<path d="M2868 1153 c6 -2 18 -2 25 0 6 3 1 5 -13 5 -14 0 -19 -2 -12 -5z"/>
<path d="M764 687 c-14 -17 -3 -42 19 -44 12 0 16 4 13 13 -3 8 -1 14 5 14 6
0 4 7 -5 15 -17 18 -18 18 -32 2z"/>
<path d="M891 278 c-1 -65 0 -68 22 -68 13 0 28 5 35 12 28 28 2 88 -32 75
-10 -4 -16 2 -19 21 -2 15 -5 -3 -6 -40z m44 -24 c0 -19 -5 -29 -15 -29 -16 0
-25 28 -16 51 10 25 31 10 31 -22z"/>
<path d="M982 278 c2 -34 8 -63 13 -65 6 -2 9 22 7 62 -2 36 -8 65 -13 65 -6
0 -9 -27 -7 -62z"/>
<path d="M732 305 c-7 -8 -8 -15 -3 -15 5 0 11 -17 13 -37 2 -29 8 -38 23 -40
11 -2 14 0 8 3 -16 7 -17 74 -2 74 6 0 4 7 -5 15 -18 18 -18 18 -34 0z"/>
<path d="M804 289 c-5 -9 -2 -10 9 -6 8 3 21 -1 27 -9 10 -11 9 -14 -8 -14
-24 0 -44 -21 -34 -37 4 -7 21 -11 38 -11 29 1 30 2 24 42 -4 32 -10 42 -27
44 -11 2 -25 -2 -29 -9z m41 -49 c3 -6 -1 -13 -10 -16 -19 -8 -30 0 -20 15 8
14 22 14 30 1z"/>
<path d="M1043 293 c-19 -7 -16 -70 3 -77 24 -9 44 -7 44 5 0 5 -4 8 -9 5 -12
-8 -41 3 -41 15 0 5 14 9 30 9 33 0 35 3 20 31 -11 19 -23 22 -47 12z m37 -24
c0 -5 -9 -9 -20 -9 -22 0 -27 16 -7 23 15 5 27 -1 27 -14z"/>
<path d="M1181 250 l2 -45 6 40 c4 27 12 41 24 43 14 3 17 -4 17 -37 0 -23 5
-41 10 -41 15 0 12 66 -3 78 -7 6 -23 10 -35 9 -19 -1 -22 -7 -21 -47z"/>
<path d="M1275 290 c-4 -6 3 -9 16 -7 29 3 36 -21 7 -25 -15 -2 -23 -10 -23
-23 0 -16 7 -20 32 -22 31 -1 32 0 27 30 -3 18 -7 38 -10 45 -4 14 -40 16 -49
2z m45 -49 c0 -14 -18 -23 -30 -16 -6 4 -8 11 -5 16 8 12 35 12 35 0z"/>
<path d="M1360 253 c0 -24 5 -43 10 -43 6 0 10 18 10 40 0 29 4 40 15 40 11 0
15 -11 15 -40 0 -50 18 -53 22 -3 4 52 28 56 28 4 0 -23 5 -41 10 -41 12 0 13
59 2 77 -4 7 -29 11 -60 10 l-52 -1 0 -43z"/>
<path d="M1512 288 c-27 -27 -7 -78 29 -78 10 0 21 5 25 11 4 7 0 9 -13 5 -12
-4 -25 -1 -33 9 -11 13 -8 15 19 15 19 0 31 5 31 13 0 16 -20 37 -35 37 -6 0
-16 -5 -23 -12z m38 -19 c0 -5 -10 -9 -21 -9 -18 0 -19 2 -9 15 12 15 30 12
30 -6z"/>
<path d="M1123 253 c9 -2 23 -2 30 0 6 3 -1 5 -18 5 -16 0 -22 -2 -12 -5z"/>
<path d="M2050 225 c0 -8 5 -15 10 -15 6 0 10 7 10 15 0 8 -4 15 -10 15 -5 0
-10 -7 -10 -15z"/>
<path d="M2574 317 c-14 -17 -3 -42 19 -44 12 0 16 4 13 13 -3 8 -1 14 5 14 6
0 4 7 -5 15 -17 18 -18 18 -32 2z"/>
</g>
</svg>
